<svg version="1.1" viewBox="0.0 0.0 600.0 371.0" fill="none" stroke="none" stroke-linecap="square" stroke-miterlimit="10" width="600" height="371" xmlns:xlink="http://www.w3.org/1999/xlink" xmlns="http://www.w3.org/2000/svg"><path fill="#ffffff" d="M0 0L600.0 0L600.0 371.0L0 371.0L0 0Z" fill-rule="nonzero"/><path stroke="#cccccc" stroke-width="1.0" stroke-linecap="butt" d="M77.5 88.5L77.5 300.5" fill-rule="nonzero"/><path stroke="#cccccc" stroke-width="1.0" stroke-linecap="butt" d="M203.5 88.5L203.5 300.5" fill-rule="nonzero"/><path stroke="#cccccc" stroke-width="1.0" stroke-linecap="butt" d="M329.5 88.5L329.5 300.5" fill-rule="nonzero"/><path stroke="#cccccc" stroke-width="1.0" stroke-linecap="butt" d="M455.5 88.5L455.5 300.5" fill-rule="nonzero"/><path stroke="#cccccc" stroke-width="1.0" stroke-linecap="butt" d="M581.5 88.5L581.5 300.5" fill-rule="nonzero"/><path stroke="#333333" stroke-width="1.0" stroke-linecap="butt" d="M77.5 300.5L581.5 300.5" fill-rule="nonzero"/><path stroke="#cccccc" stroke-width="1.0" stroke-linecap="butt" d="M77.5 265.5L581.5 265.5" fill-rule="nonzero"/><path stroke="#cccccc" stroke-width="1.0" stroke-linecap="butt" d="M77.5 229.5L581.5 229.5" fill-rule="nonzero"/><path stroke="#cccccc" stroke-width="1.0" stroke-linecap="butt" d="M77.5 194.5L581.5 194.5" fill-rule="nonzero"/><path stroke="#cccccc" stroke-width="1.0" stroke-linecap="butt" d="M77.5 159.5L581.5 159.5" fill-rule="nonzero"/><path stroke="#cccccc" stroke-width="1.0" stroke-linecap="butt" d="M77.5 123.5L581.5 123.5" fill-rule="nonzero"/><path stroke="#cccccc" stroke-width="1.0" stroke-linecap="butt" d="M77.5 88.5L581.5 88.5" fill-rule="nonzero"/><clipPath id="id_0"><path d="M77.55 88.28333L581.45 88.28333L581.45 300.45L77.55 300.45L77.55 88.28333Z" clip-rule="nonzero"/></clipPath><path stroke="#4285f4" stroke-width="2.0" stroke-linecap="butt" clip-path="url(#id_0)" d="M77.55 123.64445L161.53334 123.64445L245.51666 123.64445L329.5 123.64445L413.48334 300.45L497.46667 300.45L581.45 300.45" fill-rule="nonzero"/><path stroke="#ea4335" stroke-width="2.0" stroke-linecap="butt" clip-path="url(#id_0)" d="M77.55 123.64445L161.53334 123.64445L245.51666 123.64445L329.5 123.64445L413.48334 212.04723L497.46667 265.0889L581.45 282.76944" fill-rule="nonzero"/><path fill="#000000" fill-opacity="0.0" clip-path="url(#id_0)" d="M80.55 123.64445C80.55 125.3013 79.206856 126.64445 77.55 126.64445C75.89314 126.64445 74.55 125.3013 74.55 123.64445C74.55 121.98759 75.89314 120.64445 77.55 120.64445C79.206856 120.64445 80.55 121.98759 80.55 123.64445Z" fill-rule="nonzero"/><path fill="#000000" fill-opacity="0.0" clip-path="url(#id_0)" d="M164.53334 123.64445C164.53334 125.3013 163.19019 126.64445 161.53334 126.64445C159.87648 126.64445 158.53334 125.3013 158.53334 123.64445C158.53334 121.98759 159.87648 120.64445 161.53334 120.64445C163.19019 120.64445 164.53334 121.98759 164.53334 123.64445Z" fill-rule="nonzero"/><path fill="#000000" fill-opacity="0.0" clip-path="url(#id_0)" d="M248.51666 123.64445C248.51666 125.3013 247.17352 126.64445 245.51666 126.64445C243.85982 126.64445 242.51666 125.3013 242.51666 123.64445C242.51666 121.98759 243.85982 120.64445 245.51666 120.64445C247.17352 120.64445 248.51666 121.98759 248.51666 123.64445Z" fill-rule="nonzero"/><path fill="#000000" fill-opacity="0.0" clip-path="url(#id_0)" d="M332.5 123.64445C332.5 125.3013 331.15686 126.64445 329.5 126.64445C327.84314 126.64445 326.5 125.3013 326.5 123.64445C326.5 121.98759 327.84314 120.64445 329.5 120.64445C331.15686 120.64445 332.5 121.98759 332.5 123.64445Z" fill-rule="nonzero"/><path fill="#000000" fill-opacity="0.0" clip-path="url(#id_0)" d="M416.48334 300.45C416.48334 302.10684 415.1402 303.45 413.48334 303.45C411.82648 303.45 410.48334 302.10684 410.48334 300.45C410.48334 298.79315 411.82648 297.45 413.48334 297.45C415.1402 297.45 416.48334 298.79315 416.48334 300.45Z" fill-rule="nonzero"/><path fill="#000000" fill-opacity="0.0" clip-path="url(#id_0)" d="M500.46667 300.45C500.46667 302.10684 499.12354 303.45 497.46667 303.45C495.8098 303.45 494.46667 302.10684 494.46667 300.45C494.46667 298.79315 495.8098 297.45 497.46667 297.45C499.12354 297.45 500.46667 298.79315 500.46667 300.45Z" fill-rule="nonzero"/><path fill="#000000" fill-opacity="0.0" clip-path="url(#id_0)" d="M584.45 300.45C584.45 302.10684 583.1069 303.45 581.45 303.45C579.79315 303.45 578.45 302.10684 578.45 300.45C578.45 298.79315 579.79315 297.45 581.45 297.45C583.1069 297.45 584.45 298.79315 584.45 300.45Z" fill-rule="nonzero"/><path fill="#000000" fill-opacity="0.0" clip-path="url(#id_0)" d="M80.55 123.64445C80.55 125.3013 79.206856 126.64445 77.55 126.64445C75.89314 126.64445 74.55 125.3013 74.55 123.64445C74.55 121.98759 75.89314 120.64445 77.55 120.64445C79.206856 120.64445 80.55 121.98759 80.55 123.64445Z" fill-rule="nonzero"/><path fill="#000000" fill-opacity="0.0" clip-path="url(#id_0)" d="M164.53334 123.64445C164.53334 125.3013 163.19019 126.64445 161.53334 126.64445C159.87648 126.64445 158.53334 125.3013 158.53334 123.64445C158.53334 121.98759 159.87648 120.64445 161.53334 120.64445C163.19019 120.64445 164.53334 121.98759 164.53334 123.64445Z" fill-rule="nonzero"/><path fill="#000000" fill-opacity="0.0" clip-path="url(#id_0)" d="M248.51666 123.64445C248.51666 125.3013 247.17352 126.64445 245.51666 126.64445C243.85982 126.64445 242.51666 125.3013 242.51666 123.64445C242.51666 121.98759 243.85982 120.64445 245.51666 120.64445C247.17352 120.64445 248.51666 121.98759 248.51666 123.64445Z" fill-rule="nonzero"/><path fill="#000000" fill-opacity="0.0" clip-path="url(#id_0)" d="M332.5 123.64445C332.5 125.3013 331.15686 126.64445 329.5 126.64445C327.84314 126.64445 326.5 125.3013 326.5 123.64445C326.5 121.98759 327.84314 120.64445 329.5 120.64445C331.15686 120.64445 332.5 121.98759 332.5 123.64445Z" fill-rule="nonzero"/><path fill="#000000" fill-opacity="0.0" clip-path="url(#id_0)" d="M416.48334 212.04723C416.48334 213.70407 415.1402 215.04723 413.48334 215.04723C411.82648 215.04723 410.48334 213.70407 410.48334 212.04723C410.48334 210.39037 411.82648 209.04723 413.48334 209.04723C415.1402 209.04723 416.48334 210.39037 416.48334 212.04723Z" fill-rule="nonzero"/><path fill="#000000" fill-opacity="0.0" clip-path="url(#id_0)" d="M500.46667 265.0889C500.46667 266.74576 499.12354 268.0889 497.46667 268.0889C495.8098 268.0889 494.46667 266.74576 494.46667 265.0889C494.46667 263.43204 495.8098 262.0889 497.46667 262.0889C499.12354 262.0889 500.46667 263.43204 500.46667 265.0889Z" fill-rule="nonzero"/><path fill="#000000" fill-opacity="0.0" clip-path="url(#id_0)" d="M584.45 282.76944C584.45 284.4263 583.1069 285.76944 581.45 285.76944C579.79315 285.76944 578.45 284.4263 578.45 282.76944C578.45 281.11258 579.79315 279.76944 581.45 279.76944C583.1069 279.76944 584.45 281.11258 584.45 282.76944Z" fill-rule="nonzero"/><path fill="#000000" d="M319.10938 349.45L319.10938 341.8719L316.28125 341.8719L316.28125 340.85626L323.09375 340.85626L323.09375 341.8719L320.25 341.8719L320.25 349.45L319.10938 349.45ZM323.79688 342.075L323.79688 340.85626L324.85938 340.85626L324.85938 342.075L323.79688 342.075ZM323.79688 349.45L323.79688 343.23126L324.85938 343.23126L324.85938 349.45L323.79688 349.45ZM326.79688 349.45L326.79688 343.23126L327.73438 343.23126L327.73438 344.10626Q328.03125 343.6375 328.51562 343.3719Q329.0 343.09064 329.625 343.09064Q330.3125 343.09064 330.75 343.3719Q331.20312 343.65314 331.375 344.16876Q332.125 343.09064 333.29688 343.09064Q334.23438 343.09064 334.71875 343.60626Q335.21875 344.10626 335.21875 345.1844L335.21875 349.45L334.17188 349.45L334.17188 345.52814Q334.17188 344.90314 334.0625 344.6219Q333.96875 344.34064 333.70312 344.16876Q333.4375 343.9969 333.0625 343.9969Q332.40625 343.9969 331.96875 344.4344Q331.54688 344.8719 331.54688 345.84064L331.54688 349.45L330.48438 349.45L330.48438 345.40314Q330.48438 344.7 330.21875 344.35626Q329.96875 343.9969 329.39062 343.9969Q328.9375 343.9969 328.5625 344.23126Q328.1875 344.46564 328.01562 344.91876Q327.84375 345.3719 327.84375 346.21564L327.84375 349.45L326.79688 349.45ZM341.04688 347.45L342.14062 347.575Q341.89062 348.52814 341.1875 349.0594Q340.48438 349.59064 339.40625 349.59064Q338.04688 349.59064 337.23438 348.7469Q336.4375 347.90314 336.4375 346.3875Q336.4375 344.825 337.25 343.96564Q338.0625 343.09064 339.34375 343.09064Q340.59375 343.09064 341.375 343.9344Q342.17188 344.77814 342.17188 346.325Q342.17188 346.41876 342.17188 346.60626L337.53125 346.60626Q337.59375 347.6375 338.10938 348.1844Q338.625 348.71564 339.40625 348.71564Q339.98438 348.71564 340.39062 348.41876Q340.8125 348.10626 341.04688 347.45ZM337.59375 345.7469L341.0625 345.7469Q341.0 344.95 340.67188 344.5594Q340.15625 343.95 339.35938 343.95Q338.625 343.95 338.125 344.4344Q337.64062 344.91876 337.59375 345.7469Z" fill-rule="nonzero"/><path fill="#000000" d="M29.550013 223.92917L20.956263 223.92917L20.956263 220.11667Q20.956263 218.96042 21.190638 218.36667Q21.425013 217.77292 22.018763 217.41354Q22.596888 217.05417 23.300013 217.05417Q24.221888 217.05417 24.846888 217.64792Q25.471888 218.24167 25.643763 219.47604Q25.862513 219.02292 26.065638 218.78854Q26.518763 218.28854 27.206263 217.85104L29.550013 216.35104L29.550013 217.78854L27.768763 218.91354Q26.987513 219.41354 26.581263 219.74167Q26.175013 220.05417 26.018763 220.3198Q25.846888 220.5698 25.768763 220.83542Q25.737513 221.02292 25.737513 221.46042L25.737513 222.78854L29.550013 222.78854L29.550013 223.92917ZM24.753138 222.78854L24.753138 220.33542Q24.753138 219.5698 24.596888 219.1323Q24.425013 218.67917 24.081263 218.46042Q23.721888 218.22604 23.300013 218.22604Q22.690638 218.22604 22.300013 218.67917Q21.909388 219.11667 21.909388 220.0698L21.909388 222.78854L24.753138 222.78854ZM27.550013 210.8198L27.675013 209.72604Q28.628138 209.97604 29.159388 210.67917Q29.690638 211.3823 29.690638 212.46042Q29.690638 213.8198 28.846888 214.6323Q28.003138 215.42917 26.487513 215.42917Q24.925013 215.42917 24.065638 214.61667Q23.190638 213.80417 23.190638 212.52292Q23.190638 211.27292 24.034388 210.49167Q24.878138 209.6948 26.425013 209.6948Q26.518763 209.6948 26.706263 209.6948L26.706263 214.33542Q27.737513 214.27292 28.284388 213.7573Q28.815638 213.24167 28.815638 212.46042Q28.815638 211.8823 28.518763 211.47604Q28.206263 211.05417 27.550013 210.8198ZM25.846888 214.27292L25.846888 210.80417Q25.050013 210.86667 24.659388 211.1948Q24.050013 211.71042 24.050013 212.5073Q24.050013 213.24167 24.534388 213.74167Q25.018763 214.22604 25.846888 214.27292ZM31.940638 208.0698L23.331263 208.0698L23.331263 207.11667L24.128138 207.11667Q23.659388 206.77292 23.425013 206.35104Q23.190638 205.91354 23.190638 205.30417Q23.190638 204.5073 23.596888 203.89792Q24.003138 203.28854 24.753138 202.99167Q25.503138 202.67917 26.393763 202.67917Q27.346888 202.67917 28.112513 203.02292Q28.878138 203.35104 29.284388 204.0073Q29.690638 204.66354 29.690638 205.3823Q29.690638 205.91354 29.471888 206.33542Q29.237513 206.7573 28.909388 207.02292L31.940638 207.02292L31.940638 208.0698ZM26.471888 207.11667Q27.675013 207.11667 28.253138 206.6323Q28.815638 206.14792 28.815638 205.46042Q28.815638 204.7573 28.221888 204.2573Q27.628138 203.7573 26.378138 203.7573Q25.190638 203.7573 24.612513 204.24167Q24.018763 204.72604 24.018763 205.41354Q24.018763 206.08542 24.643763 206.60104Q25.268763 207.11667 26.471888 207.11667ZM29.550013 201.10104L20.956263 201.10104L20.956263 200.03854L29.550013 200.03854L29.550013 201.10104ZM22.175013 198.0698L20.956263 198.0698L20.956263 197.0073L22.175013 197.0073L22.175013 198.0698ZM29.550013 198.0698L23.331263 198.0698L23.331263 197.0073L29.550013 197.0073L29.550013 198.0698ZM27.268763 191.0073L27.409388 189.97604Q28.471888 190.14792 29.081263 190.85104Q29.690638 191.55417 29.690638 192.5698Q29.690638 193.85104 28.862513 194.6323Q28.018763 195.39792 26.456263 195.39792Q25.456263 195.39792 24.706263 195.0698Q23.940638 194.72604 23.565638 194.05417Q23.190638 193.36667 23.190638 192.55417Q23.190638 191.55417 23.706263 190.91354Q24.206263 190.2573 25.159388 190.0698L25.315638 191.10104Q24.690638 191.24167 24.378138 191.61667Q24.050013 191.99167 24.050013 192.52292Q24.050013 193.3198 24.628138 193.8198Q25.190638 194.3198 26.425013 194.3198Q27.690638 194.3198 28.253138 193.83542Q28.815638 193.35104 28.815638 192.58542Q28.815638 191.96042 28.440638 191.55417Q28.065638 191.1323 27.268763 191.0073ZM28.784388 185.0073Q29.284388 185.60104 29.487513 186.14792Q29.690638 186.67917 29.690638 187.30417Q29.690638 188.33542 29.190638 188.8823Q28.690638 189.42917 27.909388 189.42917Q27.456263 189.42917 27.081263 189.22604Q26.690638 189.02292 26.471888 188.67917Q26.237513 188.33542 26.128138 187.91354Q26.034388 187.61667 25.956263 186.97604Q25.815638 185.71042 25.596888 185.10104Q25.378138 185.10104 25.331263 185.10104Q24.675013 185.10104 24.409388 185.39792Q24.065638 185.80417 24.065638 186.60104Q24.065638 187.33542 24.331263 187.6948Q24.581263 188.05417 25.237513 188.22604L25.096888 189.2573Q24.440638 189.11667 24.034388 188.78854Q23.628138 188.46042 23.409388 187.85104Q23.190638 187.24167 23.190638 186.4448Q23.190638 185.64792 23.378138 185.14792Q23.565638 184.64792 23.846888 184.41354Q24.128138 184.17917 24.565638 184.08542Q24.831263 184.03854 25.534388 184.03854L26.940638 184.03854Q28.409388 184.03854 28.800013 183.97604Q29.190638 183.89792 29.550013 183.6948L29.550013 184.80417Q29.221888 184.96042 28.784388 185.0073ZM26.425013 185.10104Q26.659388 185.67917 26.831263 186.8198Q26.925013 187.47604 27.050013 187.74167Q27.159388 188.0073 27.378138 188.16354Q27.596888 188.30417 27.878138 188.30417Q28.300013 188.30417 28.581263 187.99167Q28.862513 187.66354 28.862513 187.05417Q28.862513 186.4448 28.596888 185.97604Q28.331263 185.49167 27.862513 185.27292Q27.503138 185.10104 26.815638 185.10104L26.425013 185.10104ZM27.690638 182.49167L27.534388 181.46042Q28.159388 181.36667 28.487513 180.97604Q28.815638 180.5698 28.815638 179.83542Q28.815638 179.11667 28.534388 178.77292Q28.237513 178.41354 27.831263 178.41354Q27.471888 178.41354 27.268763 178.72604Q27.128138 178.9448 26.909388 179.80417Q26.612513 180.96042 26.409388 181.41354Q26.190638 181.85104 25.815638 182.08542Q25.440638 182.3198 24.971888 182.3198Q24.565638 182.3198 24.206263 182.1323Q23.846888 181.9448 23.612513 181.61667Q23.440638 181.36667 23.315638 180.9448Q23.190638 180.52292 23.190638 180.02292Q23.190638 179.30417 23.409388 178.7573Q23.612513 178.1948 23.971888 177.92917Q24.331263 177.66354 24.925013 177.5698L25.065638 178.60104Q24.596888 178.66354 24.331263 179.0073Q24.050013 179.33542 24.050013 179.96042Q24.050013 180.67917 24.300013 180.99167Q24.534388 181.30417 24.862513 181.30417Q25.065638 181.30417 25.221888 181.17917Q25.393763 181.03854 25.503138 180.77292Q25.565638 180.61667 25.768763 179.83542Q26.081263 178.71042 26.268763 178.27292Q26.456263 177.83542 26.815638 177.58542Q27.175013 177.33542 27.721888 177.33542Q28.253138 177.33542 28.721888 177.64792Q29.175013 177.9448 29.440638 178.52292Q29.690638 179.10104 29.690638 179.83542Q29.690638 181.05417 29.190638 181.6948Q28.675013 182.3198 27.690638 182.49167Z" fill-rule="nonzero"/><path fill="#000000" d="M65.05 300.21564Q65.05 298.6844 65.3625 297.7625Q65.675 296.825 66.28438 296.325Q66.90938 295.825 67.84688 295.825Q68.53438 295.825 69.05 296.10626Q69.58125 296.3875 69.925 296.91876Q70.26875 297.4344 70.45625 298.1844Q70.64375 298.9344 70.64375 300.21564Q70.64375 301.73126 70.33125 302.65314Q70.03438 303.575 69.40938 304.09064Q68.8 304.59064 67.84688 304.59064Q66.6125 304.59064 65.89375 303.7Q65.05 302.6375 65.05 300.21564ZM66.12813 300.21564Q66.12813 302.325 66.62813 303.02814Q67.12813 303.73126 67.84688 303.73126Q68.58125 303.73126 69.06563 303.02814Q69.56563 302.325 69.56563 300.21564Q69.56563 298.09064 69.06563 297.40314Q68.58125 296.7 67.83125 296.7Q67.1125 296.7 66.675 297.3094Q66.12813 298.09064 66.12813 300.21564Z" fill-rule="nonzero"/><path fill="#000000" d="M70.59688 268.07327L70.59688 269.0889L64.90938 269.0889Q64.90938 268.7139 65.03438 268.35452Q65.25313 267.7764 65.72188 267.2139Q66.20625 266.6514 67.1125 265.91702Q68.51875 264.76077 69.00313 264.0889Q69.50313 263.41702 69.50313 262.82327Q69.50313 262.19827 69.05 261.7764Q68.59688 261.3389 67.87813 261.3389Q67.1125 261.3389 66.65938 261.79202Q66.20625 262.24515 66.19063 263.05765L65.1125 262.94827Q65.22188 261.72952 65.94063 261.10452Q66.675 260.4639 67.90938 260.4639Q69.14375 260.4639 69.8625 261.1514Q70.58125 261.8389 70.58125 262.85452Q70.58125 263.37015 70.3625 263.87015Q70.15938 264.35452 69.65938 264.91702Q69.175 265.4639 68.05 266.41702Q67.09688 267.2139 66.81563 267.51077Q66.55 267.79202 66.37813 268.07327L70.59688 268.07327Z" fill-rule="nonzero"/><path fill="#000000" d="M68.425 233.72778L68.425 231.66528L64.70625 231.66528L64.70625 230.69653L68.62813 225.13403L69.4875 225.13403L69.4875 230.69653L70.64375 230.69653L70.64375 231.66528L69.4875 231.66528L69.4875 233.72778L68.425 233.72778ZM68.425 230.69653L68.425 226.83716L65.7375 230.69653L68.425 230.69653Z" fill-rule="nonzero"/><path fill="#000000" d="M70.51875 191.8823L69.47188 191.96042Q69.33125 191.33542 69.08125 191.05417Q68.64375 190.60104 68.01875 190.60104Q67.51875 190.60104 67.12813 190.8823Q66.64375 191.2573 66.34688 191.96042Q66.06563 192.64792 66.05 193.92917Q66.425 193.35104 66.97188 193.0698Q67.53438 192.78854 68.14375 192.78854Q69.19063 192.78854 69.925 193.5698Q70.675 194.35104 70.675 195.5698Q70.675 196.3823 70.31563 197.08542Q69.97188 197.77292 69.3625 198.14792Q68.75313 198.5073 67.9875 198.5073Q66.65938 198.5073 65.83125 197.53854Q65.00313 196.5698 65.00313 194.35104Q65.00313 191.85104 65.925 190.72604Q66.72188 189.74167 68.08125 189.74167Q69.09688 189.74167 69.7375 190.3198Q70.39375 190.8823 70.51875 191.8823ZM66.22188 195.58542Q66.22188 196.1323 66.44063 196.6323Q66.675 197.11667 67.08125 197.3823Q67.50313 197.64792 67.97188 197.64792Q68.62813 197.64792 69.1125 197.11667Q69.59688 196.5698 69.59688 195.64792Q69.59688 194.7573 69.1125 194.24167Q68.64375 193.72604 67.925 193.72604Q67.20625 193.72604 66.70625 194.24167Q66.22188 194.7573 66.22188 195.58542Z" fill-rule="nonzero"/><path fill="#000000" d="M66.675 158.3493Q66.01875 158.0993 65.69063 157.6618Q65.37813 157.20868 65.37813 156.5993Q65.37813 155.6618 66.05 155.02118Q66.7375 154.38055 67.84688 154.38055Q68.97188 154.38055 69.65938 155.0368Q70.34688 155.69305 70.34688 156.63055Q70.34688 157.2243 70.03438 157.6618Q69.72188 158.0993 69.08125 158.3493Q69.87813 158.5993 70.28438 159.17743Q70.69063 159.75555 70.69063 160.55243Q70.69063 161.64618 69.90938 162.39618Q69.14375 163.14618 67.8625 163.14618Q66.59688 163.14618 65.81563 162.39618Q65.03438 161.64618 65.03438 160.52118Q65.03438 159.67743 65.45625 159.11493Q65.89375 158.55243 66.675 158.3493ZM66.45625 156.55243Q66.45625 157.1618 66.84688 157.55243Q67.25313 157.94305 67.87813 157.94305Q68.4875 157.94305 68.87813 157.56805Q69.26875 157.17743 69.26875 156.61493Q69.26875 156.0368 68.8625 155.64618Q68.45625 155.23993 67.8625 155.23993Q67.25313 155.23993 66.84688 155.63055Q66.45625 156.02118 66.45625 156.55243ZM66.12813 160.52118Q66.12813 160.9743 66.33125 161.39618Q66.55 161.81805 66.97188 162.05243Q67.39375 162.2868 67.87813 162.2868Q68.62813 162.2868 69.1125 161.80243Q69.6125 161.31805 69.6125 160.56805Q69.6125 159.80243 69.1125 159.30243Q68.6125 158.80243 67.84688 158.80243Q67.09688 158.80243 66.6125 159.30243Q66.12813 159.7868 66.12813 160.52118Z" fill-rule="nonzero"/><path fill="#000000" d="M62.01875 127.64445L60.971874 127.64445L60.971874 120.9257Q60.58125 121.28507 59.95625 121.66007Q59.346874 122.01945 58.8625 122.19132L58.8625 121.1757Q59.7375 120.75382 60.39375 120.1757Q61.065624 119.58195 61.346874 119.01945L62.01875 119.01945L62.01875 127.64445ZM65.05 123.41007Q65.05 121.87882 65.3625 120.95695Q65.675 120.01945 66.28438 119.51945Q66.90938 119.01945 67.84688 119.01945Q68.53438 119.01945 69.05 119.3007Q69.58125 119.58195 69.925 120.1132Q70.26875 120.62882 70.45625 121.37882Q70.64375 122.12882 70.64375 123.41007Q70.64375 124.9257 70.33125 125.84757Q70.03438 126.76945 69.40938 127.28507Q68.8 127.78507 67.84688 127.78507Q66.6125 127.78507 65.89375 126.89445Q65.05 125.83195 65.05 123.41007ZM66.12813 123.41007Q66.12813 125.51945 66.62813 126.22257Q67.12813 126.9257 67.84688 126.9257Q68.58125 126.9257 69.06563 126.22257Q69.56563 125.51945 69.56563 123.41007Q69.56563 121.28507 69.06563 120.59757Q68.58125 119.89445 67.83125 119.89445Q67.1125 119.89445 66.675 120.50382Q66.12813 121.28507 66.12813 123.41007Z" fill-rule="nonzero"/><path fill="#000000" d="M62.01875 92.28333L60.971874 92.28333L60.971874 85.56458Q60.58125 85.92396 59.95625 86.29896Q59.346874 86.65833 58.8625 86.83021L58.8625 85.81458Q59.7375 85.39271 60.39375 84.81458Q61.065624 84.22083 61.346874 83.65833L62.01875 83.65833L62.01875 92.28333ZM70.59688 91.26771L70.59688 92.28333L64.90938 92.28333Q64.90938 91.90833 65.03438 91.54896Q65.25313 90.97083 65.72188 90.40833Q66.20625 89.84583 67.1125 89.11146Q68.51875 87.95521 69.00313 87.28333Q69.50313 86.61146 69.50313 86.01771Q69.50313 85.39271 69.05 84.97083Q68.59688 84.53333 67.87813 84.53333Q67.1125 84.53333 66.65938 84.98646Q66.20625 85.43958 66.19063 86.25208L65.1125 86.14271Q65.22188 84.92396 65.94063 84.29896Q66.675 83.65833 67.90938 83.65833Q69.14375 83.65833 69.8625 84.34583Q70.58125 85.03333 70.58125 86.04896Q70.58125 86.56458 70.3625 87.06458Q70.15938 87.54896 69.65938 88.11146Q69.175 88.65833 68.05 89.61146Q67.09688 90.40833 66.81563 90.70521Q66.55 90.98646 66.37813 91.26771L70.59688 91.26771Z" fill-rule="nonzero"/><path fill="#000000" d="M66.05 313.21564Q66.05 311.6844 66.3625 310.7625Q66.675 309.825 67.28438 309.325Q67.90938 308.825 68.84688 308.825Q69.53438 308.825 70.05 309.10626Q70.58125 309.3875 70.925 309.91876Q71.26875 310.4344 71.45625 311.1844Q71.64375 311.9344 71.64375 313.21564Q71.64375 314.73126 71.33125 315.65314Q71.03438 316.575 70.40938 317.09064Q69.8 317.59064 68.84688 317.59064Q67.6125 317.59064 66.89375 316.7Q66.05 315.6375 66.05 313.21564ZM67.12813 313.21564Q67.12813 315.325 67.62813 316.02814Q68.12813 316.73126 68.84688 316.73126Q69.58125 316.73126 70.06563 316.02814Q70.56563 315.325 70.56563 313.21564Q70.56563 311.09064 70.06563 310.40314Q69.58125 309.7 68.83125 309.7Q68.1125 309.7 67.675 310.3094Q67.12813 311.09064 67.12813 313.21564ZM73.62813 312.4344L73.62813 311.23126L74.83125 311.23126L74.83125 312.4344L73.62813 312.4344ZM73.62813 317.45L73.62813 316.2469L74.83125 316.2469L74.83125 317.45L73.62813 317.45ZM76.05 313.21564Q76.05 311.6844 76.3625 310.7625Q76.675 309.825 77.28438 309.325Q77.90938 308.825 78.84688 308.825Q79.53438 308.825 80.05 309.10626Q80.58125 309.3875 80.925 309.91876Q81.26875 310.4344 81.45625 311.1844Q81.64375 311.9344 81.64375 313.21564Q81.64375 314.73126 81.33125 315.65314Q81.03438 316.575 80.40938 317.09064Q79.8 317.59064 78.84688 317.59064Q77.6125 317.59064 76.89375 316.7Q76.05 315.6375 76.05 313.21564ZM77.12813 313.21564Q77.12813 315.325 77.62813 316.02814Q78.12813 316.73126 78.84688 316.73126Q79.58125 316.73126 80.06563 316.02814Q80.56563 315.325 80.56563 313.21564Q80.56563 311.09064 80.06563 310.40314Q79.58125 309.7 78.83125 309.7Q78.1125 309.7 77.675 310.3094Q77.12813 311.09064 77.12813 313.21564ZM83.05 313.21564Q83.05 311.6844 83.3625 310.7625Q83.675 309.825 84.28438 309.325Q84.90938 308.825 85.84688 308.825Q86.53438 308.825 87.05 309.10626Q87.58125 309.3875 87.925 309.91876Q88.26875 310.4344 88.45625 311.1844Q88.64375 311.9344 88.64375 313.21564Q88.64375 314.73126 88.33125 315.65314Q88.03438 316.575 87.40938 317.09064Q86.8 317.59064 85.84688 317.59064Q84.6125 317.59064 83.89375 316.7Q83.05 315.6375 83.05 313.21564ZM84.12813 313.21564Q84.12813 315.325 84.62813 316.02814Q85.12813 316.73126 85.84688 316.73126Q86.58125 316.73126 87.06563 316.02814Q87.56563 315.325 87.56563 313.21564Q87.56563 311.09064 87.06563 310.40314Q86.58125 309.7 85.83125 309.7Q85.1125 309.7 84.675 310.3094Q84.12813 311.09064 84.12813 313.21564Z" fill-rule="nonzero"/><path fill="#000000" d="M192.025 313.21564Q192.025 311.6844 192.3375 310.7625Q192.65 309.825 193.25937 309.325Q193.88437 308.825 194.82187 308.825Q195.50937 308.825 196.025 309.10626Q196.55624 309.3875 196.9 309.91876Q197.24374 310.4344 197.43124 311.1844Q197.61874 311.9344 197.61874 313.21564Q197.61874 314.73126 197.30624 315.65314Q197.00937 316.575 196.38437 317.09064Q195.775 317.59064 194.82187 317.59064Q193.5875 317.59064 192.86874 316.7Q192.025 315.6375 192.025 313.21564ZM193.10312 313.21564Q193.10312 315.325 193.60312 316.02814Q194.10312 316.73126 194.82187 316.73126Q195.55624 316.73126 196.04062 316.02814Q196.54062 315.325 196.54062 313.21564Q196.54062 311.09064 196.04062 310.40314Q195.55624 309.7 194.80624 309.7Q194.0875 309.7 193.65 310.3094Q193.10312 311.09064 193.10312 313.21564ZM199.60312 312.4344L199.60312 311.23126L200.80624 311.23126L200.80624 312.4344L199.60312 312.4344ZM199.60312 317.45L199.60312 316.2469L200.80624 316.2469L200.80624 317.45L199.60312 317.45ZM205.99374 317.45L204.94687 317.45L204.94687 310.73126Q204.55624 311.09064 203.93124 311.46564Q203.32187 311.825 202.8375 311.9969L202.8375 310.98126Q203.7125 310.5594 204.36874 309.98126Q205.04062 309.3875 205.32187 308.825L205.99374 308.825L205.99374 317.45ZM209.025 315.2L210.13437 315.10626Q210.25937 315.91876 210.69687 316.325Q211.15 316.73126 211.79062 316.73126Q212.54062 316.73126 213.07187 316.15314Q213.60312 315.575 213.60312 314.6375Q213.60312 313.73126 213.0875 313.21564Q212.5875 312.6844 211.75937 312.6844Q211.25937 312.6844 210.8375 312.91876Q210.43124 313.15314 210.19687 313.5125L209.2125 313.3875L210.04062 308.98126L214.32187 308.98126L214.32187 309.98126L210.88437 309.98126L210.43124 312.29376Q211.19687 311.7469 212.04062 311.7469Q213.16562 311.7469 213.93124 312.52814Q214.7125 313.3094 214.7125 314.54376Q214.7125 315.7 214.04062 316.5594Q213.2125 317.59064 211.79062 317.59064Q210.61874 317.59064 209.86874 316.9344Q209.13437 316.27814 209.025 315.2Z" fill-rule="nonzero"/><path fill="#000000" d="M318.0 313.21564Q318.0 311.6844 318.3125 310.7625Q318.625 309.825 319.23438 309.325Q319.85938 308.825 320.79688 308.825Q321.48438 308.825 322.0 309.10626Q322.53125 309.3875 322.875 309.91876Q323.21875 310.4344 323.40625 311.1844Q323.59375 311.9344 323.59375 313.21564Q323.59375 314.73126 323.28125 315.65314Q322.98438 316.575 322.35938 317.09064Q321.75 317.59064 320.79688 317.59064Q319.5625 317.59064 318.84375 316.7Q318.0 315.6375 318.0 313.21564ZM319.07812 313.21564Q319.07812 315.325 319.57812 316.02814Q320.07812 316.73126 320.79688 316.73126Q321.53125 316.73126 322.01562 316.02814Q322.51562 315.325 322.51562 313.21564Q322.51562 311.09064 322.01562 310.40314Q321.53125 309.7 320.78125 309.7Q320.0625 309.7 319.625 310.3094Q319.07812 311.09064 319.07812 313.21564ZM325.57812 312.4344L325.57812 311.23126L326.78125 311.23126L326.78125 312.4344L325.57812 312.4344ZM325.57812 317.45L325.57812 316.2469L326.78125 316.2469L326.78125 317.45L325.57812 317.45ZM328.0 315.1844L329.0625 315.04376Q329.23438 315.9344 329.67188 316.34064Q330.10938 316.73126 330.73438 316.73126Q331.48438 316.73126 332.0 316.21564Q332.51562 315.7 332.51562 314.9344Q332.51562 314.21564 332.03125 313.7469Q331.5625 313.2625 330.82812 313.2625Q330.53125 313.2625 330.07812 313.3875L330.20312 312.45Q330.3125 312.46564 330.375 312.46564Q331.04688 312.46564 331.57812 312.1219Q332.125 311.7625 332.125 311.02814Q332.125 310.45 331.73438 310.075Q331.34375 309.6844 330.71875 309.6844Q330.10938 309.6844 329.6875 310.075Q329.28125 310.46564 329.17188 311.23126L328.10938 311.04376Q328.29688 309.9969 328.98438 309.41876Q329.67188 308.825 330.6875 308.825Q331.39062 308.825 331.98438 309.1375Q332.57812 309.4344 332.89062 309.95Q333.20312 310.46564 333.20312 311.0594Q333.20312 311.60626 332.90625 312.075Q332.60938 312.52814 332.03125 312.79376Q332.78125 312.96564 333.20312 313.52814Q333.625 314.075 333.625 314.91876Q333.625 316.04376 332.79688 316.825Q331.98438 317.60626 330.73438 317.60626Q329.60938 317.60626 328.85938 316.9344Q328.10938 316.2469 328.0 315.1844ZM335.0 313.21564Q335.0 311.6844 335.3125 310.7625Q335.625 309.825 336.23438 309.325Q336.85938 308.825 337.79688 308.825Q338.48438 308.825 339.0 309.10626Q339.53125 309.3875 339.875 309.91876Q340.21875 310.4344 340.40625 311.1844Q340.59375 311.9344 340.59375 313.21564Q340.59375 314.73126 340.28125 315.65314Q339.98438 316.575 339.35938 317.09064Q338.75 317.59064 337.79688 317.59064Q336.5625 317.59064 335.84375 316.7Q335.0 315.6375 335.0 313.21564ZM336.07812 313.21564Q336.07812 315.325 336.57812 316.02814Q337.07812 316.73126 337.79688 316.73126Q338.53125 316.73126 339.01562 316.02814Q339.51562 315.325 339.51562 313.21564Q339.51562 311.09064 339.01562 310.40314Q338.53125 309.7 337.78125 309.7Q337.0625 309.7 336.625 310.3094Q336.07812 311.09064 336.07812 313.21564Z" fill-rule="nonzero"/><path fill="#000000" d="M443.975 313.21564Q443.975 311.6844 444.2875 310.7625Q444.6 309.825 445.20938 309.325Q445.83438 308.825 446.77188 308.825Q447.45938 308.825 447.975 309.10626Q448.50626 309.3875 448.85 309.91876Q449.19376 310.4344 449.38126 311.1844Q449.56876 311.9344 449.56876 313.21564Q449.56876 314.73126 449.25626 315.65314Q448.95938 316.575 448.33438 317.09064Q447.725 317.59064 446.77188 317.59064Q445.5375 317.59064 444.81876 316.7Q443.975 315.6375 443.975 313.21564ZM445.05313 313.21564Q445.05313 315.325 445.55313 316.02814Q446.05313 316.73126 446.77188 316.73126Q447.50626 316.73126 447.99063 316.02814Q448.49063 315.325 448.49063 313.21564Q448.49063 311.09064 447.99063 310.40314Q447.50626 309.7 446.75626 309.7Q446.0375 309.7 445.6 310.3094Q445.05313 311.09064 445.05313 313.21564ZM451.55313 312.4344L451.55313 311.23126L452.75626 311.23126L452.75626 312.4344L451.55313 312.4344ZM451.55313 317.45L451.55313 316.2469L452.75626 316.2469L452.75626 317.45L451.55313 317.45ZM457.35 317.45L457.35 315.3875L453.63126 315.3875L453.63126 314.41876L457.55313 308.85626L458.4125 308.85626L458.4125 314.41876L459.56876 314.41876L459.56876 315.3875L458.4125 315.3875L458.4125 317.45L457.35 317.45ZM457.35 314.41876L457.35 310.5594L454.6625 314.41876L457.35 314.41876ZM460.975 315.2L462.08438 315.10626Q462.20938 315.91876 462.64688 316.325Q463.1 316.73126 463.74063 316.73126Q464.49063 316.73126 465.02188 316.15314Q465.55313 315.575 465.55313 314.6375Q465.55313 313.73126 465.0375 313.21564Q464.5375 312.6844 463.70938 312.6844Q463.20938 312.6844 462.7875 312.91876Q462.38126 313.15314 462.14688 313.5125L461.1625 313.3875L461.99063 308.98126L466.27188 308.98126L466.27188 309.98126L462.83438 309.98126L462.38126 312.29376Q463.14688 311.7469 463.99063 311.7469Q465.11563 311.7469 465.88126 312.52814Q466.6625 313.3094 466.6625 314.54376Q466.6625 315.7 465.99063 316.5594Q465.1625 317.59064 463.74063 317.59064Q462.56876 317.59064 461.81876 316.9344Q461.08438 316.27814 460.975 315.2Z" fill-rule="nonzero"/><path fill="#000000" d="M573.91876 317.45L572.8719 317.45L572.8719 310.73126Q572.48126 311.09064 571.85626 311.46564Q571.2469 311.825 570.7625 311.9969L570.7625 310.98126Q571.6375 310.5594 572.29376 309.98126Q572.96564 309.3875 573.2469 308.825L573.91876 308.825L573.91876 317.45ZM577.52814 312.4344L577.52814 311.23126L578.73126 311.23126L578.73126 312.4344L577.52814 312.4344ZM577.52814 317.45L577.52814 316.2469L578.73126 316.2469L578.73126 317.45L577.52814 317.45ZM579.95 313.21564Q579.95 311.6844 580.2625 310.7625Q580.575 309.825 581.1844 309.325Q581.8094 308.825 582.7469 308.825Q583.4344 308.825 583.95 309.10626Q584.48126 309.3875 584.825 309.91876Q585.16876 310.4344 585.35626 311.1844Q585.54376 311.9344 585.54376 313.21564Q585.54376 314.73126 585.23126 315.65314Q584.9344 316.575 584.3094 317.09064Q583.7 317.59064 582.7469 317.59064Q581.5125 317.59064 580.79376 316.7Q579.95 315.6375 579.95 313.21564ZM581.02814 313.21564Q581.02814 315.325 581.52814 316.02814Q582.02814 316.73126 582.7469 316.73126Q583.48126 316.73126 583.96564 316.02814Q584.46564 315.325 584.46564 313.21564Q584.46564 311.09064 583.96564 310.40314Q583.48126 309.7 582.73126 309.7Q582.0125 309.7 581.575 310.3094Q581.02814 311.09064 581.02814 313.21564ZM586.95 313.21564Q586.95 311.6844 587.2625 310.7625Q587.575 309.825 588.1844 309.325Q588.8094 308.825 589.7469 308.825Q590.4344 308.825 590.95 309.10626Q591.48126 309.3875 591.825 309.91876Q592.16876 310.4344 592.35626 311.1844Q592.54376 311.9344 592.54376 313.21564Q592.54376 314.73126 592.23126 315.65314Q591.9344 316.575 591.3094 317.09064Q590.7 317.59064 589.7469 317.59064Q588.5125 317.59064 587.79376 316.7Q586.95 315.6375 586.95 313.21564ZM588.02814 313.21564Q588.02814 315.325 588.52814 316.02814Q589.02814 316.73126 589.7469 316.73126Q590.48126 316.73126 590.96564 316.02814Q591.46564 315.325 591.46564 313.21564Q591.46564 311.09064 590.96564 310.40314Q590.48126 309.7 589.73126 309.7Q589.0125 309.7 588.575 310.3094Q588.02814 311.09064 588.02814 313.21564Z" fill-rule="nonzero"/><path stroke="#4285f4" stroke-width="4.0" stroke-linecap="butt" d="M155.5 61.916668L167.5 61.916668" fill-rule="nonzero"/><path fill="#1a1a1a" d="M176.46875 65.916664L176.46875 57.322914L177.59375 57.322914L177.59375 60.854164L182.0625 60.854164L182.0625 57.322914L183.20312 57.322914L183.20312 65.916664L182.0625 65.916664L182.0625 61.86979L177.59375 61.86979L177.59375 65.916664L176.46875 65.916664ZM185.42188 65.916664L185.42188 57.322914L188.67188 57.322914Q189.51562 57.322914 189.96875 57.40104Q190.60938 57.510414 191.03125 57.80729Q191.46875 58.104164 191.71875 58.635414Q191.98438 59.166664 191.98438 59.80729Q191.98438 60.90104 191.28125 61.666664Q190.59375 62.416664 188.76562 62.416664L186.5625 62.416664L186.5625 65.916664L185.42188 65.916664ZM186.5625 61.416664L188.78125 61.416664Q189.89062 61.416664 190.34375 61.010414Q190.8125 60.58854 190.8125 59.83854Q190.8125 59.30729 190.53125 58.93229Q190.26562 58.541664 189.82812 58.416664Q189.53125 58.33854 188.76562 58.33854L186.5625 58.33854L186.5625 61.416664ZM192.48438 65.916664L195.78125 57.322914L197.0 57.322914L200.51562 65.916664L199.23438 65.916664L198.21875 63.30729L194.64062 63.30729L193.6875 65.916664L192.48438 65.916664ZM194.96875 62.385414L197.875 62.385414L196.98438 60.010414Q196.5625 58.93229 196.375 58.229164Q196.20312 59.05729 195.90625 59.86979L194.96875 62.385414ZM208.35938 63.635414L209.39062 63.77604Q209.21875 64.83854 208.51562 65.447914Q207.8125 66.05729 206.79688 66.05729Q205.51562 66.05729 204.73438 65.229164Q203.96875 64.385414 203.96875 62.822914Q203.96875 61.822914 204.29688 61.072914Q204.64062 60.30729 205.3125 59.93229Q206.0 59.55729 206.8125 59.55729Q207.8125 59.55729 208.45312 60.072914Q209.10938 60.572914 209.29688 61.52604L208.26562 61.68229Q208.125 61.05729 207.75 60.74479Q207.375 60.416664 206.84375 60.416664Q206.04688 60.416664 205.54688 60.99479Q205.04688 61.55729 205.04688 62.791664Q205.04688 64.05729 205.53125 64.61979Q206.01562 65.18229 206.78125 65.18229Q207.40625 65.18229 207.8125 64.80729Q208.23438 64.43229 208.35938 63.635414ZM214.35938 65.15104Q213.76562 65.65104 213.21875 65.854164Q212.6875 66.05729 212.0625 66.05729Q211.03125 66.05729 210.48438 65.55729Q209.9375 65.05729 209.9375 64.27604Q209.9375 63.822914 210.14062 63.447914Q210.34375 63.05729 210.6875 62.83854Q211.03125 62.604164 211.45312 62.49479Q211.75 62.40104 212.39062 62.322914Q213.65625 62.18229 214.26562 61.96354Q214.26562 61.74479 214.26562 61.697914Q214.26562 61.041664 213.96875 60.77604Q213.5625 60.43229 212.76562 60.43229Q212.03125 60.43229 211.67188 60.697914Q211.3125 60.947914 211.14062 61.604164L210.10938 61.46354Q210.25 60.80729 210.57812 60.40104Q210.90625 59.99479 211.51562 59.77604Q212.125 59.55729 212.92188 59.55729Q213.71875 59.55729 214.21875 59.74479Q214.71875 59.93229 214.95312 60.21354Q215.1875 60.49479 215.28125 60.93229Q215.32812 61.197914 215.32812 61.90104L215.32812 63.30729Q215.32812 64.77604 215.39062 65.166664Q215.46875 65.55729 215.67188 65.916664L214.5625 65.916664Q214.40625 65.58854 214.35938 65.15104ZM214.26562 62.791664Q213.6875 63.02604 212.54688 63.197914Q211.89062 63.291664 211.625 63.416664Q211.35938 63.52604 211.20312 63.74479Q211.0625 63.96354 211.0625 64.24479Q211.0625 64.666664 211.375 64.947914Q211.70312 65.229164 212.3125 65.229164Q212.92188 65.229164 213.39062 64.96354Q213.875 64.697914 214.09375 64.229164Q214.26562 63.86979 214.26562 63.18229L214.26562 62.791664ZM217.26562 65.916664L217.26562 57.322914L218.32812 57.322914L218.32812 65.916664L217.26562 65.916664ZM224.35938 63.635414L225.39062 63.77604Q225.21875 64.83854 224.51562 65.447914Q223.8125 66.05729 222.79688 66.05729Q221.51562 66.05729 220.73438 65.229164Q219.96875 64.385414 219.96875 62.822914Q219.96875 61.822914 220.29688 61.072914Q220.64062 60.30729 221.3125 59.93229Q222.0 59.55729 222.8125 59.55729Q223.8125 59.55729 224.45312 60.072914Q225.10938 60.572914 225.29688 61.52604L224.26562 61.68229Q224.125 61.05729 223.75 60.74479Q223.375 60.416664 222.84375 60.416664Q222.04688 60.416664 221.54688 60.99479Q221.04688 61.55729 221.04688 62.791664Q221.04688 64.05729 221.53125 64.61979Q222.01562 65.18229 222.78125 65.18229Q223.40625 65.18229 223.8125 64.80729Q224.23438 64.43229 224.35938 63.635414ZM230.375 65.916664L230.375 64.99479Q229.64062 66.05729 228.39062 66.05729Q227.84375 66.05729 227.35938 65.854164Q226.89062 65.635414 226.65625 65.322914Q226.42188 64.99479 226.32812 64.52604Q226.26562 64.229164 226.26562 63.541664L226.26562 59.697914L227.32812 59.697914L227.32812 63.15104Q227.32812 63.96354 227.39062 64.260414Q227.48438 64.666664 227.79688 64.916664Q228.125 65.15104 228.60938 65.15104Q229.07812 65.15104 229.48438 64.916664Q229.90625 64.666664 230.07812 64.24479Q230.26562 63.822914 230.26562 63.02604L230.26562 59.697914L231.3125 59.697914L231.3125 65.916664L230.375 65.916664ZM233.26562 65.916664L233.26562 57.322914L234.32812 57.322914L234.32812 65.916664L233.26562 65.916664ZM240.35938 65.15104Q239.76562 65.65104 239.21875 65.854164Q238.6875 66.05729 238.0625 66.05729Q237.03125 66.05729 236.48438 65.55729Q235.9375 65.05729 235.9375 64.27604Q235.9375 63.822914 236.14062 63.447914Q236.34375 63.05729 236.6875 62.83854Q237.03125 62.604164 237.45312 62.49479Q237.75 62.40104 238.39062 62.322914Q239.65625 62.18229 240.26562 61.96354Q240.26562 61.74479 240.26562 61.697914Q240.26562 61.041664 239.96875 60.77604Q239.5625 60.43229 238.76562 60.43229Q238.03125 60.43229 237.67188 60.697914Q237.3125 60.947914 237.14062 61.604164L236.10938 61.46354Q236.25 60.80729 236.57812 60.40104Q236.90625 59.99479 237.51562 59.77604Q238.125 59.55729 238.92188 59.55729Q239.71875 59.55729 240.21875 59.74479Q240.71875 59.93229 240.95312 60.21354Q241.1875 60.49479 241.28125 60.93229Q241.32812 61.197914 241.32812 61.90104L241.32812 63.30729Q241.32812 64.77604 241.39062 65.166664Q241.46875 65.55729 241.67188 65.916664L240.5625 65.916664Q240.40625 65.58854 240.35938 65.15104ZM240.26562 62.791664Q239.6875 63.02604 238.54688 63.197914Q237.89062 63.291664 237.625 63.416664Q237.35938 63.52604 237.20312 63.74479Q237.0625 63.96354 237.0625 64.24479Q237.0625 64.666664 237.375 64.947914Q237.70312 65.229164 238.3125 65.229164Q238.92188 65.229164 239.39062 64.96354Q239.875 64.697914 240.09375 64.229164Q240.26562 63.86979 240.26562 63.18229L240.26562 62.791664ZM245.59375 64.979164L245.75 65.90104Q245.29688 65.99479 244.95312 65.99479Q244.375 65.99479 244.0625 65.822914Q243.75 65.635414 243.60938 65.33854Q243.48438 65.041664 243.48438 64.08854L243.48438 60.510414L242.71875 60.510414L242.71875 59.697914L243.48438 59.697914L243.48438 58.15104L244.53125 57.52604L244.53125 59.697914L245.59375 59.697914L245.59375 60.510414L244.53125 60.510414L244.53125 64.15104Q244.53125 64.604164 244.57812 64.729164Q244.64062 64.854164 244.76562 64.93229Q244.89062 65.010414 245.125 65.010414Q245.3125 65.010414 245.59375 64.979164ZM250.54688 63.916664L251.64062 64.041664Q251.39062 64.99479 250.6875 65.52604Q249.98438 66.05729 248.90625 66.05729Q247.54688 66.05729 246.73438 65.21354Q245.9375 64.36979 245.9375 62.854164Q245.9375 61.291664 246.75 60.43229Q247.5625 59.55729 248.84375 59.55729Q250.09375 59.55729 250.875 60.40104Q251.67188 61.24479 251.67188 62.791664Q251.67188 62.885414 251.67188 63.072914L247.03125 63.072914Q247.09375 64.104164 247.60938 64.65104Q248.125 65.18229 248.90625 65.18229Q249.48438 65.18229 249.89062 64.885414Q250.3125 64.572914 250.54688 63.916664ZM247.09375 62.21354L250.5625 62.21354Q250.5 61.416664 250.17188 61.02604Q249.65625 60.416664 248.85938 60.416664Q248.125 60.416664 247.625 60.90104Q247.14062 61.385414 247.09375 62.21354ZM257.32812 65.916664L257.32812 65.135414Q256.73438 66.05729 255.59375 66.05729Q254.84375 66.05729 254.21875 65.65104Q253.59375 65.229164 253.25 64.49479Q252.90625 63.760414 252.90625 62.80729Q252.90625 61.885414 253.21875 61.11979Q253.53125 60.354164 254.15625 59.96354Q254.78125 59.55729 255.54688 59.55729Q256.10938 59.55729 256.54688 59.791664Q256.98438 60.02604 257.26562 60.40104L257.26562 57.322914L258.3125 57.322914L258.3125 65.916664L257.32812 65.916664ZM254.0 62.80729Q254.0 64.010414 254.5 64.604164Q255.0 65.18229 255.6875 65.18229Q256.375 65.18229 256.85938 64.61979Q257.34375 64.05729 257.34375 62.90104Q257.34375 61.61979 256.84375 61.02604Q256.35938 60.43229 255.64062 60.43229Q254.9375 60.43229 254.46875 61.010414Q254.0 61.572914 254.0 62.80729ZM263.28125 65.916664L263.28125 59.697914L264.23438 59.697914L264.23438 60.635414Q264.59375 59.979164 264.89062 59.77604Q265.20312 59.55729 265.57812 59.55729Q266.10938 59.55729 266.65625 59.885414L266.29688 60.86979Q265.90625 60.635414 265.53125 60.635414Q265.17188 60.635414 264.89062 60.854164Q264.625 61.05729 264.51562 61.43229Q264.32812 61.99479 264.32812 62.65104L264.32812 65.916664L263.28125 65.916664ZM271.54688 63.916664L272.64062 64.041664Q272.39062 64.99479 271.6875 65.52604Q270.98438 66.05729 269.90625 66.05729Q268.54688 66.05729 267.73438 65.21354Q266.9375 64.36979 266.9375 62.854164Q266.9375 61.291664 267.75 60.43229Q268.5625 59.55729 269.84375 59.55729Q271.09375 59.55729 271.875 60.40104Q272.67188 61.24479 272.67188 62.791664Q272.67188 62.885414 272.67188 63.072914L268.03125 63.072914Q268.09375 64.104164 268.60938 64.65104Q269.125 65.18229 269.90625 65.18229Q270.48438 65.18229 270.89062 64.885414Q271.3125 64.572914 271.54688 63.916664ZM268.09375 62.21354L271.5625 62.21354Q271.5 61.416664 271.17188 61.02604Q270.65625 60.416664 269.85938 60.416664Q269.125 60.416664 268.625 60.90104Q268.14062 61.385414 268.09375 62.21354ZM274.29688 68.30729L274.29688 59.697914L275.25 59.697914L275.25 60.49479Q275.59375 60.02604 276.01562 59.791664Q276.45312 59.55729 277.0625 59.55729Q277.85938 59.55729 278.46875 59.96354Q279.07812 60.36979 279.375 61.11979Q279.6875 61.86979 279.6875 62.760414Q279.6875 63.71354 279.34375 64.479164Q279.01562 65.24479 278.35938 65.65104Q277.70312 66.05729 276.98438 66.05729Q276.45312 66.05729 276.03125 65.83854Q275.60938 65.604164 275.34375 65.27604L275.34375 68.30729L274.29688 68.30729ZM275.25 62.83854Q275.25 64.041664 275.73438 64.61979Q276.21875 65.18229 276.90625 65.18229Q277.60938 65.18229 278.10938 64.58854Q278.60938 63.99479 278.60938 62.74479Q278.60938 61.55729 278.125 60.979164Q277.64062 60.385414 276.95312 60.385414Q276.28125 60.385414 275.76562 61.010414Q275.25 61.635414 275.25 62.83854ZM281.26562 65.916664L281.26562 57.322914L282.32812 57.322914L282.32812 65.916664L281.26562 65.916664ZM284.29688 58.541664L284.29688 57.322914L285.35938 57.322914L285.35938 58.541664L284.29688 58.541664ZM284.29688 65.916664L284.29688 59.697914L285.35938 59.697914L285.35938 65.916664L284.29688 65.916664ZM291.35938 63.635414L292.39062 63.77604Q292.21875 64.83854 291.51562 65.447914Q290.8125 66.05729 289.79688 66.05729Q288.51562 66.05729 287.73438 65.229164Q286.96875 64.385414 286.96875 62.822914Q286.96875 61.822914 287.29688 61.072914Q287.64062 60.30729 288.3125 59.93229Q289.0 59.55729 289.8125 59.55729Q290.8125 59.55729 291.45312 60.072914Q292.10938 60.572914 292.29688 61.52604L291.26562 61.68229Q291.125 61.05729 290.75 60.74479Q290.375 60.416664 289.84375 60.416664Q289.04688 60.416664 288.54688 60.99479Q288.04688 61.55729 288.04688 62.791664Q288.04688 64.05729 288.53125 64.61979Q289.01562 65.18229 289.78125 65.18229Q290.40625 65.18229 290.8125 64.80729Q291.23438 64.43229 291.35938 63.635414ZM297.35938 65.15104Q296.76562 65.65104 296.21875 65.854164Q295.6875 66.05729 295.0625 66.05729Q294.03125 66.05729 293.48438 65.55729Q292.9375 65.05729 292.9375 64.27604Q292.9375 63.822914 293.14062 63.447914Q293.34375 63.05729 293.6875 62.83854Q294.03125 62.604164 294.45312 62.49479Q294.75 62.40104 295.39062 62.322914Q296.65625 62.18229 297.26562 61.96354Q297.26562 61.74479 297.26562 61.697914Q297.26562 61.041664 296.96875 60.77604Q296.5625 60.43229 295.76562 60.43229Q295.03125 60.43229 294.67188 60.697914Q294.3125 60.947914 294.14062 61.604164L293.10938 61.46354Q293.25 60.80729 293.57812 60.40104Q293.90625 59.99479 294.51562 59.77604Q295.125 59.55729 295.92188 59.55729Q296.71875 59.55729 297.21875 59.74479Q297.71875 59.93229 297.95312 60.21354Q298.1875 60.49479 298.28125 60.93229Q298.32812 61.197914 298.32812 61.90104L298.32812 63.30729Q298.32812 64.77604 298.39062 65.166664Q298.46875 65.55729 298.67188 65.916664L297.5625 65.916664Q297.40625 65.58854 297.35938 65.15104ZM297.26562 62.791664Q296.6875 63.02604 295.54688 63.197914Q294.89062 63.291664 294.625 63.416664Q294.35938 63.52604 294.20312 63.74479Q294.0625 63.96354 294.0625 64.24479Q294.0625 64.666664 294.375 64.947914Q294.70312 65.229164 295.3125 65.229164Q295.92188 65.229164 296.39062 64.96354Q296.875 64.697914 297.09375 64.229164Q297.26562 63.86979 297.26562 63.18229L297.26562 62.791664ZM299.875 64.05729L300.90625 63.90104Q301.0 64.52604 301.39062 64.854164Q301.79688 65.18229 302.53125 65.18229Q303.25 65.18229 303.59375 64.90104Q303.95312 64.604164 303.95312 64.197914Q303.95312 63.83854 303.64062 63.635414Q303.42188 63.49479 302.5625 63.27604Q301.40625 62.979164 300.95312 62.77604Q300.51562 62.55729 300.28125 62.18229Q300.04688 61.80729 300.04688 61.33854Q300.04688 60.93229 300.23438 60.572914Q300.42188 60.21354 300.75 59.979164Q301.0 59.80729 301.42188 59.68229Q301.84375 59.55729 302.34375 59.55729Q303.0625 59.55729 303.60938 59.77604Q304.17188 59.979164 304.4375 60.33854Q304.70312 60.697914 304.79688 61.291664L303.76562 61.43229Q303.70312 60.96354 303.35938 60.697914Q303.03125 60.416664 302.40625 60.416664Q301.6875 60.416664 301.375 60.666664Q301.0625 60.90104 301.0625 61.229164Q301.0625 61.43229 301.1875 61.58854Q301.32812 61.760414 301.59375 61.86979Q301.75 61.93229 302.53125 62.135414Q303.65625 62.447914 304.09375 62.635414Q304.53125 62.822914 304.78125 63.18229Q305.03125 63.541664 305.03125 64.08854Q305.03125 64.61979 304.71875 65.08854Q304.42188 65.541664 303.84375 65.80729Q303.26562 66.05729 302.53125 66.05729Q301.3125 66.05729 300.67188 65.55729Q300.04688 65.041664 299.875 64.05729Z" fill-rule="nonzero"/><path stroke="#ea4335" stroke-width="4.0" stroke-linecap="butt" d="M321.5 61.916668L333.5 61.916668" fill-rule="nonzero"/><path fill="#1a1a1a" d="M342.42188 65.916664L342.42188 57.322914L345.67188 57.322914Q346.51562 57.322914 346.96875 57.40104Q347.60938 57.510414 348.03125 57.80729Q348.46875 58.104164 348.71875 58.635414Q348.98438 59.166664 348.98438 59.80729Q348.98438 60.90104 348.28125 61.666664Q347.59375 62.416664 345.76562 62.416664L343.5625 62.416664L343.5625 65.916664L342.42188 65.916664ZM343.5625 61.416664L345.78125 61.416664Q346.89062 61.416664 347.34375 61.010414Q347.8125 60.58854 347.8125 59.83854Q347.8125 59.30729 347.53125 58.93229Q347.26562 58.541664 346.82812 58.416664Q346.53125 58.33854 345.76562 58.33854L343.5625 58.33854L343.5625 61.416664ZM350.28125 65.916664L350.28125 59.697914L351.23438 59.697914L351.23438 60.635414Q351.59375 59.979164 351.89062 59.77604Q352.20312 59.55729 352.57812 59.55729Q353.10938 59.55729 353.65625 59.885414L353.29688 60.86979Q352.90625 60.635414 352.53125 60.635414Q352.17188 60.635414 351.89062 60.854164Q351.625 61.05729 351.51562 61.43229Q351.32812 61.99479 351.32812 62.65104L351.32812 65.916664L350.28125 65.916664ZM358.54688 63.916664L359.64062 64.041664Q359.39062 64.99479 358.6875 65.52604Q357.98438 66.05729 356.90625 66.05729Q355.54688 66.05729 354.73438 65.21354Q353.9375 64.36979 353.9375 62.854164Q353.9375 61.291664 354.75 60.43229Q355.5625 59.55729 356.84375 59.55729Q358.09375 59.55729 358.875 60.40104Q359.67188 61.24479 359.67188 62.791664Q359.67188 62.885414 359.67188 63.072914L355.03125 63.072914Q355.09375 64.104164 355.60938 64.65104Q356.125 65.18229 356.90625 65.18229Q357.48438 65.18229 357.89062 64.885414Q358.3125 64.572914 358.54688 63.916664ZM355.09375 62.21354L358.5625 62.21354Q358.5 61.416664 358.17188 61.02604Q357.65625 60.416664 356.85938 60.416664Q356.125 60.416664 355.625 60.90104Q355.14062 61.385414 355.09375 62.21354ZM365.32812 65.916664L365.32812 65.135414Q364.73438 66.05729 363.59375 66.05729Q362.84375 66.05729 362.21875 65.65104Q361.59375 65.229164 361.25 64.49479Q360.90625 63.760414 360.90625 62.80729Q360.90625 61.885414 361.21875 61.11979Q361.53125 60.354164 362.15625 59.96354Q362.78125 59.55729 363.54688 59.55729Q364.10938 59.55729 364.54688 59.791664Q364.98438 60.02604 365.26562 60.40104L365.26562 57.322914L366.3125 57.322914L366.3125 65.916664L365.32812 65.916664ZM362.0 62.80729Q362.0 64.010414 362.5 64.604164Q363.0 65.18229 363.6875 65.18229Q364.375 65.18229 364.85938 64.61979Q365.34375 64.05729 365.34375 62.90104Q365.34375 61.61979 364.84375 61.02604Q364.35938 60.43229 363.64062 60.43229Q362.9375 60.43229 362.46875 61.010414Q362.0 61.572914 362.0 62.80729ZM368.29688 58.541664L368.29688 57.322914L369.35938 57.322914L369.35938 58.541664L368.29688 58.541664ZM368.29688 65.916664L368.29688 59.697914L369.35938 59.697914L369.35938 65.916664L368.29688 65.916664ZM375.35938 63.635414L376.39062 63.77604Q376.21875 64.83854 375.51562 65.447914Q374.8125 66.05729 373.79688 66.05729Q372.51562 66.05729 371.73438 65.229164Q370.96875 64.385414 370.96875 62.822914Q370.96875 61.822914 371.29688 61.072914Q371.64062 60.30729 372.3125 59.93229Q373.0 59.55729 373.8125 59.55729Q374.8125 59.55729 375.45312 60.072914Q376.10938 60.572914 376.29688 61.52604L375.26562 61.68229Q375.125 61.05729 374.75 60.74479Q374.375 60.416664 373.84375 60.416664Q373.04688 60.416664 372.54688 60.99479Q372.04688 61.55729 372.04688 62.791664Q372.04688 64.05729 372.53125 64.61979Q373.01562 65.18229 373.78125 65.18229Q374.40625 65.18229 374.8125 64.80729Q375.23438 64.43229 375.35938 63.635414ZM379.59375 64.979164L379.75 65.90104Q379.29688 65.99479 378.95312 65.99479Q378.375 65.99479 378.0625 65.822914Q377.75 65.635414 377.60938 65.33854Q377.48438 65.041664 377.48438 64.08854L377.48438 60.510414L376.71875 60.510414L376.71875 59.697914L377.48438 59.697914L377.48438 58.15104L378.53125 57.52604L378.53125 59.697914L379.59375 59.697914L379.59375 60.510414L378.53125 60.510414L378.53125 64.15104Q378.53125 64.604164 378.57812 64.729164Q378.64062 64.854164 378.76562 64.93229Q378.89062 65.010414 379.125 65.010414Q379.3125 65.010414 379.59375 64.979164ZM384.54688 63.916664L385.64062 64.041664Q385.39062 64.99479 384.6875 65.52604Q383.98438 66.05729 382.90625 66.05729Q381.54688 66.05729 380.73438 65.21354Q379.9375 64.36979 379.9375 62.854164Q379.9375 61.291664 380.75 60.43229Q381.5625 59.55729 382.84375 59.55729Q384.09375 59.55729 384.875 60.40104Q385.67188 61.24479 385.67188 62.791664Q385.67188 62.885414 385.67188 63.072914L381.03125 63.072914Q381.09375 64.104164 381.60938 64.65104Q382.125 65.18229 382.90625 65.18229Q383.48438 65.18229 383.89062 64.885414Q384.3125 64.572914 384.54688 63.916664ZM381.09375 62.21354L384.5625 62.21354Q384.5 61.416664 384.17188 61.02604Q383.65625 60.416664 382.85938 60.416664Q382.125 60.416664 381.625 60.90104Q381.14062 61.385414 381.09375 62.21354ZM391.32812 65.916664L391.32812 65.135414Q390.73438 66.05729 389.59375 66.05729Q388.84375 66.05729 388.21875 65.65104Q387.59375 65.229164 387.25 64.49479Q386.90625 63.760414 386.90625 62.80729Q386.90625 61.885414 387.21875 61.11979Q387.53125 60.354164 388.15625 59.96354Q388.78125 59.55729 389.54688 59.55729Q390.10938 59.55729 390.54688 59.791664Q390.98438 60.02604 391.26562 60.40104L391.26562 57.322914L392.3125 57.322914L392.3125 65.916664L391.32812 65.916664ZM388.0 62.80729Q388.0 64.010414 388.5 64.604164Q389.0 65.18229 389.6875 65.18229Q390.375 65.18229 390.85938 64.61979Q391.34375 64.05729 391.34375 62.90104Q391.34375 61.61979 390.84375 61.02604Q390.35938 60.43229 389.64062 60.43229Q388.9375 60.43229 388.46875 61.010414Q388.0 61.572914 388.0 62.80729ZM397.4375 65.916664L397.4375 57.322914L401.25 57.322914Q402.40625 57.322914 403.0 57.55729Q403.59375 57.791664 403.95312 58.385414Q404.3125 58.96354 404.3125 59.666664Q404.3125 60.58854 403.71875 61.21354Q403.125 61.83854 401.89062 62.010414Q402.34375 62.229164 402.57812 62.43229Q403.07812 62.885414 403.51562 63.572914L405.01562 65.916664L403.57812 65.916664L402.45312 64.135414Q401.95312 63.354164 401.625 62.947914Q401.3125 62.541664 401.04688 62.385414Q400.79688 62.21354 400.53125 62.135414Q400.34375 62.104164 399.90625 62.104164L398.57812 62.104164L398.57812 65.916664L397.4375 65.916664ZM398.57812 61.11979L401.03125 61.11979Q401.79688 61.11979 402.23438 60.96354Q402.6875 60.791664 402.90625 60.447914Q403.14062 60.08854 403.14062 59.666664Q403.14062 59.05729 402.6875 58.666664Q402.25 58.27604 401.29688 58.27604L398.57812 58.27604L398.57812 61.11979ZM410.54688 63.916664L411.64062 64.041664Q411.39062 64.99479 410.6875 65.52604Q409.98438 66.05729 408.90625 66.05729Q407.54688 66.05729 406.73438 65.21354Q405.9375 64.36979 405.9375 62.854164Q405.9375 61.291664 406.75 60.43229Q407.5625 59.55729 408.84375 59.55729Q410.09375 59.55729 410.875 60.40104Q411.67188 61.24479 411.67188 62.791664Q411.67188 62.885414 411.67188 63.072914L407.03125 63.072914Q407.09375 64.104164 407.60938 64.65104Q408.125 65.18229 408.90625 65.18229Q409.48438 65.18229 409.89062 64.885414Q410.3125 64.572914 410.54688 63.916664ZM407.09375 62.21354L410.5625 62.21354Q410.5 61.416664 410.17188 61.02604Q409.65625 60.416664 408.85938 60.416664Q408.125 60.416664 407.625 60.90104Q407.14062 61.385414 407.09375 62.21354ZM413.29688 68.30729L413.29688 59.697914L414.25 59.697914L414.25 60.49479Q414.59375 60.02604 415.01562 59.791664Q415.45312 59.55729 416.0625 59.55729Q416.85938 59.55729 417.46875 59.96354Q418.07812 60.36979 418.375 61.11979Q418.6875 61.86979 418.6875 62.760414Q418.6875 63.71354 418.34375 64.479164Q418.01562 65.24479 417.35938 65.65104Q416.70312 66.05729 415.98438 66.05729Q415.45312 66.05729 415.03125 65.83854Q414.60938 65.604164 414.34375 65.27604L414.34375 68.30729L413.29688 68.30729ZM414.25 62.83854Q414.25 64.041664 414.73438 64.61979Q415.21875 65.18229 415.90625 65.18229Q416.60938 65.18229 417.10938 64.58854Q417.60938 63.99479 417.60938 62.74479Q417.60938 61.55729 417.125 60.979164Q416.64062 60.385414 415.95312 60.385414Q415.28125 60.385414 414.76562 61.010414Q414.25 61.635414 414.25 62.83854ZM420.26562 65.916664L420.26562 57.322914L421.32812 57.322914L421.32812 65.916664L420.26562 65.916664ZM423.29688 58.541664L423.29688 57.322914L424.35938 57.322914L424.35938 58.541664L423.29688 58.541664ZM423.29688 65.916664L423.29688 59.697914L424.35938 59.697914L424.35938 65.916664L423.29688 65.916664ZM430.35938 63.635414L431.39062 63.77604Q431.21875 64.83854 430.51562 65.447914Q429.8125 66.05729 428.79688 66.05729Q427.51562 66.05729 426.73438 65.229164Q425.96875 64.385414 425.96875 62.822914Q425.96875 61.822914 426.29688 61.072914Q426.64062 60.30729 427.3125 59.93229Q428.0 59.55729 428.8125 59.55729Q429.8125 59.55729 430.45312 60.072914Q431.10938 60.572914 431.29688 61.52604L430.26562 61.68229Q430.125 61.05729 429.75 60.74479Q429.375 60.416664 428.84375 60.416664Q428.04688 60.416664 427.54688 60.99479Q427.04688 61.55729 427.04688 62.791664Q427.04688 64.05729 427.53125 64.61979Q428.01562 65.18229 428.78125 65.18229Q429.40625 65.18229 429.8125 64.80729Q430.23438 64.43229 430.35938 63.635414ZM436.35938 65.15104Q435.76562 65.65104 435.21875 65.854164Q434.6875 66.05729 434.0625 66.05729Q433.03125 66.05729 432.48438 65.55729Q431.9375 65.05729 431.9375 64.27604Q431.9375 63.822914 432.14062 63.447914Q432.34375 63.05729 432.6875 62.83854Q433.03125 62.604164 433.45312 62.49479Q433.75 62.40104 434.39062 62.322914Q435.65625 62.18229 436.26562 61.96354Q436.26562 61.74479 436.26562 61.697914Q436.26562 61.041664 435.96875 60.77604Q435.5625 60.43229 434.76562 60.43229Q434.03125 60.43229 433.67188 60.697914Q433.3125 60.947914 433.14062 61.604164L432.10938 61.46354Q432.25 60.80729 432.57812 60.40104Q432.90625 59.99479 433.51562 59.77604Q434.125 59.55729 434.92188 59.55729Q435.71875 59.55729 436.21875 59.74479Q436.71875 59.93229 436.95312 60.21354Q437.1875 60.49479 437.28125 60.93229Q437.32812 61.197914 437.32812 61.90104L437.32812 63.30729Q437.32812 64.77604 437.39062 65.166664Q437.46875 65.55729 437.67188 65.916664L436.5625 65.916664Q436.40625 65.58854 436.35938 65.15104ZM436.26562 62.791664Q435.6875 63.02604 434.54688 63.197914Q433.89062 63.291664 433.625 63.416664Q433.35938 63.52604 433.20312 63.74479Q433.0625 63.96354 433.0625 64.24479Q433.0625 64.666664 433.375 64.947914Q433.70312 65.229164 434.3125 65.229164Q434.92188 65.229164 435.39062 64.96354Q435.875 64.697914 436.09375 64.229164Q436.26562 63.86979 436.26562 63.18229L436.26562 62.791664ZM438.875 64.05729L439.90625 63.90104Q440.0 64.52604 440.39062 64.854164Q440.79688 65.18229 441.53125 65.18229Q442.25 65.18229 442.59375 64.90104Q442.95312 64.604164 442.95312 64.197914Q442.95312 63.83854 442.64062 63.635414Q442.42188 63.49479 441.5625 63.27604Q440.40625 62.979164 439.95312 62.77604Q439.51562 62.55729 439.28125 62.18229Q439.04688 61.80729 439.04688 61.33854Q439.04688 60.93229 439.23438 60.572914Q439.42188 60.21354 439.75 59.979164Q440.0 59.80729 440.42188 59.68229Q440.84375 59.55729 441.34375 59.55729Q442.0625 59.55729 442.60938 59.77604Q443.17188 59.979164 443.4375 60.33854Q443.70312 60.697914 443.79688 61.291664L442.76562 61.43229Q442.70312 60.96354 442.35938 60.697914Q442.03125 60.416664 441.40625 60.416664Q440.6875 60.416664 440.375 60.666664Q440.0625 60.90104 440.0625 61.229164Q440.0625 61.43229 440.1875 61.58854Q440.32812 61.760414 440.59375 61.86979Q440.75 61.93229 441.53125 62.135414Q442.65625 62.447914 443.09375 62.635414Q443.53125 62.822914 443.78125 63.18229Q444.03125 63.541664 444.03125 64.08854Q444.03125 64.61979 443.71875 65.08854Q443.42188 65.541664 442.84375 65.80729Q442.26562 66.05729 441.53125 66.05729Q440.3125 66.05729 439.67188 65.55729Q439.04688 65.041664 438.875 64.05729Z" fill-rule="nonzero"/><path fill="#757575" d="M20.159374 37.55L20.159374 23.2375L22.05 23.2375L22.05 29.1125L29.4875 29.1125L29.4875 23.2375L31.378124 23.2375L31.378124 37.55L29.4875 37.55L29.4875 30.8L22.05 30.8L22.05 37.55L20.159374 37.55ZM34.096874 37.55L34.096874 23.2375L39.4875 23.2375Q40.925 23.2375 41.675 23.3625Q42.721874 23.55 43.440624 24.05Q44.159374 24.534374 44.58125 25.425Q45.01875 26.315624 45.01875 27.378124Q45.01875 29.20625 43.846874 30.471874Q42.690624 31.721874 39.659374 31.721874L35.9875 31.721874L35.9875 37.55L34.096874 37.55ZM35.9875 30.034374L39.690624 30.034374Q41.51875 30.034374 42.284374 29.3625Q43.065624 28.675 43.065624 27.425Q43.065624 26.534374 42.6125 25.89375Q42.159374 25.253124 41.425 25.05Q40.940624 24.925 39.64375 24.925L35.9875 24.925L35.9875 30.034374ZM45.51875 37.55L51.01875 23.2375L53.065624 23.2375L58.925 37.55L56.76875 37.55L55.096874 33.20625L49.1125 33.20625L47.534374 37.55L45.51875 37.55ZM49.659374 31.675L54.503124 31.675L53.01875 27.70625Q52.33125 25.89375 52.003124 24.7375Q51.721874 26.1125 51.221874 27.471874L49.659374 31.675ZM72.64375 33.753124L74.3625 33.971874Q74.08125 35.76875 72.90938 36.784374Q71.75313 37.784374 70.05 37.784374Q67.925 37.784374 66.62813 36.39375Q65.33125 35.003124 65.33125 32.409374Q65.33125 30.721874 65.87813 29.471874Q66.44063 28.20625 67.58125 27.58125Q68.72188 26.940624 70.06563 26.940624Q71.75313 26.940624 72.81563 27.8Q73.89375 28.659374 74.20625 30.221874L72.4875 30.4875Q72.25313 29.440624 71.62813 28.925Q71.00313 28.39375 70.12813 28.39375Q68.8 28.39375 67.97188 29.346874Q67.14375 30.3 67.14375 32.346874Q67.14375 34.440624 67.94063 35.39375Q68.7375 36.33125 70.03438 36.33125Q71.06563 36.33125 71.75313 35.70625Q72.45625 35.065624 72.64375 33.753124ZM82.64375 36.26875Q81.65938 37.096874 80.75313 37.440624Q79.84688 37.784374 78.81563 37.784374Q77.1125 37.784374 76.19063 36.95625Q75.26875 36.1125 75.26875 34.815624Q75.26875 34.05 75.6125 33.425Q75.97188 32.8 76.53438 32.425Q77.09688 32.034374 77.8 31.83125Q78.31563 31.70625 79.3625 31.565624Q81.4875 31.315624 82.4875 30.971874Q82.50313 30.6125 82.50313 30.503124Q82.50313 29.440624 82.00313 28.9875Q81.33125 28.39375 80.00313 28.39375Q78.75313 28.39375 78.15938 28.83125Q77.58125 29.26875 77.3 30.378124L75.58125 30.14375Q75.81563 29.034374 76.34688 28.3625Q76.87813 27.675 77.89375 27.315624Q78.90938 26.940624 80.25313 26.940624Q81.58125 26.940624 82.40938 27.253124Q83.2375 27.565624 83.62813 28.05Q84.01875 28.51875 84.175 29.2375Q84.26875 29.690624 84.26875 30.8625L84.26875 33.20625Q84.26875 35.659374 84.37813 36.315624Q84.4875 36.95625 84.83125 37.55L82.9875 37.55Q82.72188 37.003124 82.64375 36.26875ZM82.4875 32.346874Q81.53438 32.7375 79.6125 33.003124Q78.53438 33.159374 78.08125 33.3625Q77.64375 33.55 77.39375 33.925Q77.14375 34.3 77.14375 34.76875Q77.14375 35.471874 77.675 35.940624Q78.20625 36.409374 79.2375 36.409374Q80.25313 36.409374 81.03438 35.971874Q81.83125 35.51875 82.20625 34.753124Q82.4875 34.14375 82.4875 32.9875L82.4875 32.346874ZM86.83125 37.55L86.83125 23.2375L88.58125 23.2375L88.58125 37.55L86.83125 37.55ZM97.64375 33.753124L99.3625 33.971874Q99.08125 35.76875 97.90938 36.784374Q96.75313 37.784374 95.05 37.784374Q92.925 37.784374 91.62813 36.39375Q90.33125 35.003124 90.33125 32.409374Q90.33125 30.721874 90.87813 29.471874Q91.44063 28.20625 92.58125 27.58125Q93.72188 26.940624 95.06563 26.940624Q96.75313 26.940624 97.81563 27.8Q98.89375 28.659374 99.20625 30.221874L97.4875 30.4875Q97.25313 29.440624 96.62813 28.925Q96.00313 28.39375 95.12813 28.39375Q93.8 28.39375 92.97188 29.346874Q92.14375 30.3 92.14375 32.346874Q92.14375 34.440624 92.94063 35.39375Q93.7375 36.33125 95.03438 36.33125Q96.06563 36.33125 96.75313 35.70625Q97.45625 35.065624 97.64375 33.753124ZM107.65938 37.55L107.65938 36.01875Q106.45625 37.784374 104.37813 37.784374Q103.45625 37.784374 102.65938 37.440624Q101.8625 37.08125 101.47188 36.55Q101.09688 36.01875 100.94063 35.2375Q100.83125 34.721874 100.83125 33.596874L100.83125 27.175L102.58125 27.175L102.58125 32.925Q102.58125 34.3 102.69063 34.784374Q102.8625 35.471874 103.39375 35.878124Q103.94063 36.26875 104.72188 36.26875Q105.51875 36.26875 106.20625 35.8625Q106.90938 35.45625 107.19063 34.76875Q107.4875 34.065624 107.4875 32.7375L107.4875 27.175L109.2375 27.175L109.2375 37.55L107.65938 37.55ZM111.83125 37.55L111.83125 23.2375L113.58125 23.2375L113.58125 37.55L111.83125 37.55ZM122.64375 36.26875Q121.65938 37.096874 120.75313 37.440624Q119.84688 37.784374 118.81563 37.784374Q117.1125 37.784374 116.19063 36.95625Q115.26875 36.1125 115.26875 34.815624Q115.26875 34.05 115.6125 33.425Q115.97188 32.8 116.53438 32.425Q117.09688 32.034374 117.8 31.83125Q118.31563 31.70625 119.3625 31.565624Q121.4875 31.315624 122.4875 30.971874Q122.50313 30.6125 122.50313 30.503124Q122.50313 29.440624 122.00313 28.9875Q121.33125 28.39375 120.00313 28.39375Q118.75313 28.39375 118.15938 28.83125Q117.58125 29.26875 117.3 30.378124L115.58125 30.14375Q115.81563 29.034374 116.34688 28.3625Q116.87813 27.675 117.89375 27.315624Q118.90938 26.940624 120.25313 26.940624Q121.58125 26.940624 122.40938 27.253124Q123.2375 27.565624 123.62813 28.05Q124.01875 28.51875 124.175 29.2375Q124.26875 29.690624 124.26875 30.8625L124.26875 33.20625Q124.26875 35.659374 124.37813 36.315624Q124.4875 36.95625 124.83125 37.55L122.9875 37.55Q122.72188 37.003124 122.64375 36.26875ZM122.4875 32.346874Q121.53438 32.7375 119.6125 33.003124Q118.53438 33.159374 118.08125 33.3625Q117.64375 33.55 117.39375 33.925Q117.14375 34.3 117.14375 34.76875Q117.14375 35.471874 117.675 35.940624Q118.20625 36.409374 119.2375 36.409374Q120.25313 36.409374 121.03438 35.971874Q121.83125 35.51875 122.20625 34.753124Q122.4875 34.14375 122.4875 32.9875L122.4875 32.346874ZM130.70625 35.971874L130.95625 37.534374Q130.22188 37.690624 129.62813 37.690624Q128.675 37.690624 128.14375 37.39375Q127.62813 37.08125 127.40938 36.596874Q127.19063 36.096874 127.19063 34.51875L127.19063 28.55L125.90938 28.55L125.90938 27.175L127.19063 27.175L127.19063 24.6125L128.94063 23.55L128.94063 27.175L130.70625 27.175L130.70625 28.55L128.94063 28.55L128.94063 34.6125Q128.94063 35.3625 129.03438 35.58125Q129.12813 35.784374 129.33125 35.925Q129.55 36.05 129.94063 36.05Q130.22188 36.05 130.70625 35.971874ZM139.97188 34.20625L141.78438 34.440624Q141.3625 36.01875 140.19063 36.909374Q139.03438 37.784374 137.22188 37.784374Q134.95625 37.784374 133.6125 36.39375Q132.28438 34.9875 132.28438 32.45625Q132.28438 29.83125 133.62813 28.39375Q134.97188 26.940624 137.12813 26.940624Q139.20625 26.940624 140.51875 28.3625Q141.84688 29.76875 141.84688 32.346874Q141.84688 32.503124 141.83125 32.815624L134.09688 32.815624Q134.19063 34.51875 135.06563 35.425Q135.94063 36.33125 137.2375 36.33125Q138.20625 36.33125 138.87813 35.83125Q139.56563 35.315624 139.97188 34.20625ZM134.19063 31.3625L139.9875 31.3625Q139.87813 30.065624 139.33125 29.409374Q138.4875 28.39375 137.14375 28.39375Q135.94063 28.39375 135.1125 29.20625Q134.28438 30.003124 134.19063 31.3625ZM150.59688 37.55L150.59688 36.2375Q149.6125 37.784374 147.69063 37.784374Q146.45625 37.784374 145.40938 37.096874Q144.37813 36.409374 143.8 35.190624Q143.2375 33.971874 143.2375 32.378124Q143.2375 30.815624 143.75313 29.55Q144.26875 28.284374 145.3 27.6125Q146.34688 26.940624 147.6125 26.940624Q148.55 26.940624 149.28438 27.346874Q150.01875 27.7375 150.4875 28.3625L150.4875 23.2375L152.22188 23.2375L152.22188 37.55L150.59688 37.55ZM145.03438 32.378124Q145.03438 34.3625 145.87813 35.346874Q146.72188 36.33125 147.8625 36.33125Q149.01875 36.33125 149.81563 35.39375Q150.62813 34.45625 150.62813 32.51875Q150.62813 30.39375 149.8 29.39375Q148.9875 28.39375 147.78438 28.39375Q146.6125 28.39375 145.81563 29.3625Q145.03438 30.315624 145.03438 32.378124ZM160.84688 37.55L160.84688 27.175L162.425 27.175L162.425 28.753124Q163.03438 27.64375 163.55 27.3Q164.06563 26.940624 164.675 26.940624Q165.56563 26.940624 166.4875 27.503124L165.87813 29.14375Q165.2375 28.753124 164.59688 28.753124Q164.01875 28.753124 163.55 29.1125Q163.09688 29.45625 162.89375 30.065624Q162.6125 31.003124 162.6125 32.1125L162.6125 37.55L160.84688 37.55ZM174.97188 34.20625L176.78438 34.440624Q176.3625 36.01875 175.19063 36.909374Q174.03438 37.784374 172.22188 37.784374Q169.95625 37.784374 168.6125 36.39375Q167.28438 34.9875 167.28438 32.45625Q167.28438 29.83125 168.62813 28.39375Q169.97188 26.940624 172.12813 26.940624Q174.20625 26.940624 175.51875 28.3625Q176.84688 29.76875 176.84688 32.346874Q176.84688 32.503124 176.83125 32.815624L169.09688 32.815624Q169.19063 34.51875 170.06563 35.425Q170.94063 36.33125 172.2375 36.33125Q173.20625 36.33125 173.87813 35.83125Q174.56563 35.315624 174.97188 34.20625ZM169.19063 31.3625L174.9875 31.3625Q174.87813 30.065624 174.33125 29.409374Q173.4875 28.39375 172.14375 28.39375Q170.94063 28.39375 170.1125 29.20625Q169.28438 30.003124 169.19063 31.3625ZM178.8625 41.51875L178.8625 27.175L180.47188 27.175L180.47188 28.51875Q181.03438 27.7375 181.7375 27.346874Q182.45625 26.940624 183.47188 26.940624Q184.8 26.940624 185.81563 27.628124Q186.83125 28.315624 187.34688 29.565624Q187.87813 30.8 187.87813 32.284374Q187.87813 33.878124 187.3 35.159374Q186.7375 36.425 185.64375 37.1125Q184.55 37.784374 183.34688 37.784374Q182.47188 37.784374 181.76875 37.409374Q181.08125 37.034374 180.62813 36.471874L180.62813 41.51875L178.8625 41.51875ZM180.45625 32.425Q180.45625 34.425 181.26875 35.378124Q182.08125 36.33125 183.2375 36.33125Q184.40938 36.33125 185.2375 35.346874Q186.08125 34.3625 186.08125 32.26875Q186.08125 30.3 185.25313 29.315624Q184.44063 28.315624 183.31563 28.315624Q182.19063 28.315624 181.31563 29.378124Q180.45625 30.425 180.45625 32.425ZM189.83125 37.55L189.83125 23.2375L191.58125 23.2375L191.58125 37.55L189.83125 37.55ZM193.87813 25.253124L193.87813 23.2375L195.64375 23.2375L195.64375 25.253124L193.87813 25.253124ZM193.87813 37.55L193.87813 27.175L195.64375 27.175L195.64375 37.55L193.87813 37.55ZM204.64375 33.753124L206.3625 33.971874Q206.08125 35.76875 204.90938 36.784374Q203.75313 37.784374 202.05 37.784374Q199.925 37.784374 198.62813 36.39375Q197.33125 35.003124 197.33125 32.409374Q197.33125 30.721874 197.87813 29.471874Q198.44063 28.20625 199.58125 27.58125Q200.72188 26.940624 202.06563 26.940624Q203.75313 26.940624 204.81563 27.8Q205.89375 28.659374 206.20625 30.221874L204.4875 30.4875Q204.25313 29.440624 203.62813 28.925Q203.00313 28.39375 202.12813 28.39375Q200.8 28.39375 199.97188 29.346874Q199.14375 30.3 199.14375 32.346874Q199.14375 34.440624 199.94063 35.39375Q200.7375 36.33125 202.03438 36.33125Q203.06563 36.33125 203.75313 35.70625Q204.45625 35.065624 204.64375 33.753124ZM214.64375 36.26875Q213.65938 37.096874 212.75313 37.440624Q211.84688 37.784374 210.81563 37.784374Q209.1125 37.784374 208.19063 36.95625Q207.26875 36.1125 207.26875 34.815624Q207.26875 34.05 207.6125 33.425Q207.97188 32.8 208.53438 32.425Q209.09688 32.034374 209.8 31.83125Q210.31563 31.70625 211.3625 31.565624Q213.4875 31.315624 214.4875 30.971874Q214.50313 30.6125 214.50313 30.503124Q214.50313 29.440624 214.00313 28.9875Q213.33125 28.39375 212.00313 28.39375Q210.75313 28.39375 210.15938 28.83125Q209.58125 29.26875 209.3 30.378124L207.58125 30.14375Q207.81563 29.034374 208.34688 28.3625Q208.87813 27.675 209.89375 27.315624Q210.90938 26.940624 212.25313 26.940624Q213.58125 26.940624 214.40938 27.253124Q215.2375 27.565624 215.62813 28.05Q216.01875 28.51875 216.175 29.2375Q216.26875 29.690624 216.26875 30.8625L216.26875 33.20625Q216.26875 35.659374 216.37813 36.315624Q216.4875 36.95625 216.83125 37.55L214.9875 37.55Q214.72188 37.003124 214.64375 36.26875ZM214.4875 32.346874Q213.53438 32.7375 211.6125 33.003124Q210.53438 33.159374 210.08125 33.3625Q209.64375 33.55 209.39375 33.925Q209.14375 34.3 209.14375 34.76875Q209.14375 35.471874 209.675 35.940624Q210.20625 36.409374 211.2375 36.409374Q212.25313 36.409374 213.03438 35.971874Q213.83125 35.51875 214.20625 34.753124Q214.4875 34.14375 214.4875 32.9875L214.4875 32.346874ZM218.15938 34.45625L219.90938 34.175Q220.05 35.221874 220.72188 35.784374Q221.39375 36.33125 222.59688 36.33125Q223.8 36.33125 224.37813 35.846874Q224.97188 35.346874 224.97188 34.690624Q224.97188 34.096874 224.45625 33.753124Q224.09688 33.51875 222.65938 33.159374Q220.72188 32.659374 219.97188 32.315624Q219.2375 31.95625 218.84688 31.33125Q218.45625 30.690624 218.45625 29.925Q218.45625 29.2375 218.76875 28.64375Q219.09688 28.05 219.64375 27.659374Q220.05 27.3625 220.75313 27.159374Q221.47188 26.940624 222.28438 26.940624Q223.50313 26.940624 224.425 27.3Q225.34688 27.64375 225.78438 28.253124Q226.22188 28.846874 226.39375 29.846874L224.675 30.08125Q224.55 29.284374 223.9875 28.846874Q223.425 28.39375 222.40938 28.39375Q221.19063 28.39375 220.675 28.8Q220.15938 29.190624 220.15938 29.721874Q220.15938 30.065624 220.37813 30.346874Q220.58125 30.628124 221.05 30.815624Q221.31563 30.909374 222.59688 31.253124Q224.47188 31.753124 225.20625 32.08125Q225.94063 32.39375 226.3625 33.003124Q226.78438 33.596874 226.78438 34.503124Q226.78438 35.378124 226.26875 36.159374Q225.75313 36.940624 224.78438 37.3625Q223.81563 37.784374 222.59688 37.784374Q220.58125 37.784374 219.51875 36.940624Q218.45625 36.096874 218.15938 34.45625ZM237.75313 37.55L233.8 27.175L235.65938 27.175L237.89375 33.39375Q238.25313 34.39375 238.55 35.471874Q238.78438 34.659374 239.20625 33.503124L241.50313 27.175L243.31563 27.175L239.39375 37.55L237.75313 37.55ZM244.15938 34.45625L245.90938 34.175Q246.05 35.221874 246.72188 35.784374Q247.39375 36.33125 248.59688 36.33125Q249.8 36.33125 250.37813 35.846874Q250.97188 35.346874 250.97188 34.690624Q250.97188 34.096874 250.45625 33.753124Q250.09688 33.51875 248.65938 33.159374Q246.72188 32.659374 245.97188 32.315624Q245.2375 31.95625 244.84688 31.33125Q244.45625 30.690624 244.45625 29.925Q244.45625 29.2375 244.76875 28.64375Q245.09688 28.05 245.64375 27.659374Q246.05 27.3625 246.75313 27.159374Q247.47188 26.940624 248.28438 26.940624Q249.50313 26.940624 250.425 27.3Q251.34688 27.64375 251.78438 28.253124Q252.22188 28.846874 252.39375 29.846874L250.675 30.08125Q250.55 29.284374 249.9875 28.846874Q249.425 28.39375 248.40938 28.39375Q247.19063 28.39375 246.675 28.8Q246.15938 29.190624 246.15938 29.721874Q246.15938 30.065624 246.37813 30.346874Q246.58125 30.628124 247.05 30.815624Q247.31563 30.909374 248.59688 31.253124Q250.47188 31.753124 251.20625 32.08125Q251.94063 32.39375 252.3625 33.003124Q252.78438 33.596874 252.78438 34.503124Q252.78438 35.378124 252.26875 36.159374Q251.75313 36.940624 250.78438 37.3625Q249.81563 37.784374 248.59688 37.784374Q246.58125 37.784374 245.51875 36.940624Q244.45625 36.096874 244.15938 34.45625ZM260.15936 34.45625L261.90936 34.175Q262.05 35.221874 262.72186 35.784374Q263.39374 36.33125 264.59686 36.33125Q265.8 36.33125 266.3781 35.846874Q266.97186 35.346874 266.97186 34.690624Q266.97186 34.096874 266.45624 33.753124Q266.09686 33.51875 264.65936 33.159374Q262.72186 32.659374 261.97186 32.315624Q261.2375 31.95625 260.84686 31.33125Q260.45624 30.690624 260.45624 29.925Q260.45624 29.2375 260.76874 28.64375Q261.09686 28.05 261.64374 27.659374Q262.05 27.3625 262.7531 27.159374Q263.47186 26.940624 264.28436 26.940624Q265.5031 26.940624 266.425 27.3Q267.34686 27.64375 267.78436 28.253124Q268.22186 28.846874 268.39374 29.846874L266.675 30.08125Q266.55 29.284374 265.9875 28.846874Q265.425 28.39375 264.40936 28.39375Q263.1906 28.39375 262.675 28.8Q262.15936 29.190624 262.15936 29.721874Q262.15936 30.065624 262.3781 30.346874Q262.58124 30.628124 263.05 30.815624Q263.3156 30.909374 264.59686 31.253124Q266.47186 31.753124 267.20624 32.08125Q267.9406 32.39375 268.3625 33.003124Q268.78436 33.596874 268.78436 34.503124Q268.78436 35.378124 268.26874 36.159374Q267.7531 36.940624 266.78436 37.3625Q265.8156 37.784374 264.59686 37.784374Q262.58124 37.784374 261.51874 36.940624Q260.45624 36.096874 260.15936 34.45625ZM270.8781 25.253124L270.8781 23.2375L272.64374 23.2375L272.64374 25.253124L270.8781 25.253124ZM270.8781 37.55L270.8781 27.175L272.64374 27.175L272.64374 37.55L270.8781 37.55ZM274.8625 37.55L274.8625 27.175L276.4406 27.175L276.4406 28.628124Q276.925 27.878124 277.7375 27.409374Q278.55 26.940624 279.58124 26.940624Q280.7375 26.940624 281.47186 27.425Q282.20624 27.89375 282.51874 28.753124Q283.7531 26.940624 285.72186 26.940624Q287.26874 26.940624 288.09686 27.8Q288.925 28.659374 288.925 30.425L288.925 37.55L287.175 37.55L287.175 31.01875Q287.175 29.95625 287.0031 29.503124Q286.83124 29.034374 286.3781 28.753124Q285.9406 28.471874 285.33124 28.471874Q284.2375 28.471874 283.5031 29.20625Q282.78436 29.925 282.78436 31.51875L282.78436 37.55L281.03436 37.55L281.03436 30.815624Q281.03436 29.64375 280.59686 29.065624Q280.175 28.471874 279.1906 28.471874Q278.45624 28.471874 277.8156 28.8625Q277.1906 29.253124 276.90936 30.003124Q276.6281 30.753124 276.6281 32.175L276.6281 37.55L274.8625 37.55ZM291.8625 41.51875L291.8625 27.175L293.47186 27.175L293.47186 28.51875Q294.03436 27.7375 294.7375 27.346874Q295.45624 26.940624 296.47186 26.940624Q297.8 26.940624 298.8156 27.628124Q299.83124 28.315624 300.34686 29.565624Q300.8781 30.8 300.8781 32.284374Q300.8781 33.878124 300.3 35.159374Q299.7375 36.425 298.64374 37.1125Q297.55 37.784374 296.34686 37.784374Q295.47186 37.784374 294.76874 37.409374Q294.08124 37.034374 293.6281 36.471874L293.6281 41.51875L291.8625 41.51875ZM293.45624 32.425Q293.45624 34.425 294.26874 35.378124Q295.08124 36.33125 296.2375 36.33125Q297.40936 36.33125 298.2375 35.346874Q299.08124 34.3625 299.08124 32.26875Q299.08124 30.3 298.2531 29.315624Q297.4406 28.315624 296.3156 28.315624Q295.1906 28.315624 294.3156 29.378124Q293.45624 30.425 293.45624 32.425ZM302.83124 37.55L302.83124 23.2375L304.58124 23.2375L304.58124 37.55L302.83124 37.55ZM313.97186 34.20625L315.78436 34.440624Q315.3625 36.01875 314.1906 36.909374Q313.03436 37.784374 311.22186 37.784374Q308.95624 37.784374 307.6125 36.39375Q306.28436 34.9875 306.28436 32.45625Q306.28436 29.83125 307.6281 28.39375Q308.97186 26.940624 311.1281 26.940624Q313.20624 26.940624 314.51874 28.3625Q315.84686 29.76875 315.84686 32.346874Q315.84686 32.503124 315.83124 32.815624L308.09686 32.815624Q308.1906 34.51875 309.0656 35.425Q309.9406 36.33125 311.2375 36.33125Q312.20624 36.33125 312.8781 35.83125Q313.5656 35.315624 313.97186 34.20625ZM308.1906 31.3625L313.9875 31.3625Q313.8781 30.065624 313.33124 29.409374Q312.4875 28.39375 311.14374 28.39375Q309.9406 28.39375 309.1125 29.20625Q308.28436 30.003124 308.1906 31.3625ZM323.83124 37.55L323.83124 23.2375L325.58124 23.2375L325.58124 37.55L323.83124 37.55ZM327.8781 25.253124L327.8781 23.2375L329.64374 23.2375L329.64374 25.253124L327.8781 25.253124ZM327.8781 37.55L327.8781 27.175L329.64374 27.175L329.64374 37.55L327.8781 37.55ZM331.8625 37.55L331.8625 27.175L333.45624 27.175L333.45624 28.659374Q334.59686 26.940624 336.7531 26.940624Q337.6906 26.940624 338.47186 27.284374Q339.26874 27.6125 339.65936 28.159374Q340.05 28.70625 340.20624 29.45625Q340.3 29.95625 340.3 31.175L340.3 37.55L338.53436 37.55L338.53436 31.2375Q338.53436 30.159374 338.33124 29.628124Q338.1281 29.096874 337.59686 28.784374Q337.08124 28.471874 336.3781 28.471874Q335.2531 28.471874 334.4406 29.190624Q333.6281 29.89375 333.6281 31.878124L333.6281 37.55L331.8625 37.55ZM349.97186 34.20625L351.78436 34.440624Q351.3625 36.01875 350.1906 36.909374Q349.03436 37.784374 347.22186 37.784374Q344.95624 37.784374 343.6125 36.39375Q342.28436 34.9875 342.28436 32.45625Q342.28436 29.83125 343.6281 28.39375Q344.97186 26.940624 347.1281 26.940624Q349.20624 26.940624 350.51874 28.3625Q351.84686 29.76875 351.84686 32.346874Q351.84686 32.503124 351.83124 32.815624L344.09686 32.815624Q344.1906 34.51875 345.0656 35.425Q345.9406 36.33125 347.2375 36.33125Q348.20624 36.33125 348.8781 35.83125Q349.5656 35.315624 349.97186 34.20625ZM344.1906 31.3625L349.9875 31.3625Q349.8781 30.065624 349.33124 29.409374Q348.4875 28.39375 347.14374 28.39375Q345.9406 28.39375 345.1125 29.20625Q344.28436 30.003124 344.1906 31.3625ZM360.64374 36.26875Q359.65936 37.096874 358.7531 37.440624Q357.84686 37.784374 356.8156 37.784374Q355.1125 37.784374 354.1906 36.95625Q353.26874 36.1125 353.26874 34.815624Q353.26874 34.05 353.6125 33.425Q353.97186 32.8 354.53436 32.425Q355.09686 32.034374 355.8 31.83125Q356.3156 31.70625 357.3625 31.565624Q359.4875 31.315624 360.4875 30.971874Q360.5031 30.6125 360.5031 30.503124Q360.5031 29.440624 360.0031 28.9875Q359.33124 28.39375 358.0031 28.39375Q356.7531 28.39375 356.15936 28.83125Q355.58124 29.26875 355.3 30.378124L353.58124 30.14375Q353.8156 29.034374 354.34686 28.3625Q354.8781 27.675 355.89374 27.315624Q356.90936 26.940624 358.2531 26.940624Q359.58124 26.940624 360.40936 27.253124Q361.2375 27.565624 361.6281 28.05Q362.01874 28.51875 362.175 29.2375Q362.26874 29.690624 362.26874 30.8625L362.26874 33.20625Q362.26874 35.659374 362.3781 36.315624Q362.4875 36.95625 362.83124 37.55L360.9875 37.55Q360.72186 37.003124 360.64374 36.26875ZM360.4875 32.346874Q359.53436 32.7375 357.6125 33.003124Q356.53436 33.159374 356.08124 33.3625Q355.64374 33.55 355.39374 33.925Q355.14374 34.3 355.14374 34.76875Q355.14374 35.471874 355.675 35.940624Q356.20624 36.409374 357.2375 36.409374Q358.2531 36.409374 359.03436 35.971874Q359.83124 35.51875 360.20624 34.753124Q360.4875 34.14375 360.4875 32.9875L360.4875 32.346874ZM364.84686 37.55L364.84686 27.175L366.425 27.175L366.425 28.753124Q367.03436 27.64375 367.55 27.3Q368.0656 26.940624 368.675 26.940624Q369.5656 26.940624 370.4875 27.503124L369.8781 29.14375Q369.2375 28.753124 368.59686 28.753124Q368.01874 28.753124 367.55 29.1125Q367.09686 29.45625 366.89374 30.065624Q366.6125 31.003124 366.6125 32.1125L366.6125 37.55L364.84686 37.55ZM377.84686 37.55L377.84686 27.175L379.425 27.175L379.425 28.753124Q380.03436 27.64375 380.55 27.3Q381.0656 26.940624 381.675 26.940624Q382.5656 26.940624 383.4875 27.503124L382.8781 29.14375Q382.2375 28.753124 381.59686 28.753124Q381.01874 28.753124 380.55 29.1125Q380.09686 29.45625 379.89374 30.065624Q379.6125 31.003124 379.6125 32.1125L379.6125 37.55L377.84686 37.55ZM391.97186 34.20625L393.78436 34.440624Q393.3625 36.01875 392.1906 36.909374Q391.03436 37.784374 389.22186 37.784374Q386.95624 37.784374 385.6125 36.39375Q384.28436 34.9875 384.28436 32.45625Q384.28436 29.83125 385.6281 28.39375Q386.97186 26.940624 389.1281 26.940624Q391.20624 26.940624 392.51874 28.3625Q393.84686 29.76875 393.84686 32.346874Q393.84686 32.503124 393.83124 32.815624L386.09686 32.815624Q386.1906 34.51875 387.0656 35.425Q387.9406 36.33125 389.2375 36.33125Q390.20624 36.33125 390.8781 35.83125Q391.5656 35.315624 391.97186 34.20625ZM386.1906 31.3625L391.9875 31.3625Q391.8781 30.065624 391.33124 29.409374Q390.4875 28.39375 389.14374 28.39375Q387.9406 28.39375 387.1125 29.20625Q386.28436 30.003124 386.1906 31.3625ZM395.55 38.409374L397.2531 38.659374Q397.3625 39.45625 397.84686 39.815624Q398.5031 40.3 399.64374 40.3Q400.8625 40.3 401.51874 39.815624Q402.1906 39.33125 402.425 38.45625Q402.5656 37.909374 402.55 36.190624Q401.39374 37.55 399.675 37.55Q397.53436 37.55 396.3625 36.003124Q395.1906 34.45625 395.1906 32.3Q395.1906 30.815624 395.72186 29.565624Q396.26874 28.315624 397.28436 27.628124Q398.3156 26.940624 399.6906 26.940624Q401.51874 26.940624 402.72186 28.425L402.72186 27.175L404.33124 27.175L404.33124 36.14375Q404.33124 38.565624 403.83124 39.565624Q403.34686 40.58125 402.26874 41.159374Q401.20624 41.753124 399.64374 41.753124Q397.8 41.753124 396.64374 40.925Q395.5031 40.096874 395.55 38.409374ZM397.0031 32.175Q397.0031 34.221874 397.8156 35.159374Q398.6281 36.096874 399.84686 36.096874Q401.05 36.096874 401.8625 35.159374Q402.6906 34.221874 402.6906 32.2375Q402.6906 30.33125 401.84686 29.3625Q401.0031 28.39375 399.8156 28.39375Q398.64374 28.39375 397.8156 29.346874Q397.0031 30.3 397.0031 32.175ZM406.84686 37.55L406.84686 27.175L408.425 27.175L408.425 28.753124Q409.03436 27.64375 409.55 27.3Q410.0656 26.940624 410.675 26.940624Q411.5656 26.940624 412.4875 27.503124L411.8781 29.14375Q411.2375 28.753124 410.59686 28.753124Q410.01874 28.753124 409.55 29.1125Q409.09686 29.45625 408.89374 30.065624Q408.6125 31.003124 408.6125 32.1125L408.6125 37.55L406.84686 37.55ZM420.97186 34.20625L422.78436 34.440624Q422.3625 36.01875 421.1906 36.909374Q420.03436 37.784374 418.22186 37.784374Q415.95624 37.784374 414.6125 36.39375Q413.28436 34.9875 413.28436 32.45625Q413.28436 29.83125 414.6281 28.39375Q415.97186 26.940624 418.1281 26.940624Q420.20624 26.940624 421.51874 28.3625Q422.84686 29.76875 422.84686 32.346874Q422.84686 32.503124 422.83124 32.815624L415.09686 32.815624Q415.1906 34.51875 416.0656 35.425Q416.9406 36.33125 418.2375 36.33125Q419.20624 36.33125 419.8781 35.83125Q420.5656 35.315624 420.97186 34.20625ZM415.1906 31.3625L420.9875 31.3625Q420.8781 30.065624 420.33124 29.409374Q419.4875 28.39375 418.14374 28.39375Q416.9406 28.39375 416.1125 29.20625Q415.28436 30.003124 415.1906 31.3625ZM424.15936 34.45625L425.90936 34.175Q426.05 35.221874 426.72186 35.784374Q427.39374 36.33125 428.59686 36.33125Q429.8 36.33125 430.3781 35.846874Q430.97186 35.346874 430.97186 34.690624Q430.97186 34.096874 430.45624 33.753124Q430.09686 33.51875 428.65936 33.159374Q426.72186 32.659374 425.97186 32.315624Q425.2375 31.95625 424.84686 31.33125Q424.45624 30.690624 424.45624 29.925Q424.45624 29.2375 424.76874 28.64375Q425.09686 28.05 425.64374 27.659374Q426.05 27.3625 426.7531 27.159374Q427.47186 26.940624 428.28436 26.940624Q429.5031 26.940624 430.425 27.3Q431.34686 27.64375 431.78436 28.253124Q432.22186 28.846874 432.39374 29.846874L430.675 30.08125Q430.55 29.284374 429.9875 28.846874Q429.425 28.39375 428.40936 28.39375Q427.1906 28.39375 426.675 28.8Q426.15936 29.190624 426.15936 29.721874Q426.15936 30.065624 426.3781 30.346874Q426.58124 30.628124 427.05 30.815624Q427.3156 30.909374 428.59686 31.253124Q430.47186 31.753124 431.20624 32.08125Q431.9406 32.39375 432.3625 33.003124Q432.78436 33.596874 432.78436 34.503124Q432.78436 35.378124 432.26874 36.159374Q431.7531 36.940624 430.78436 37.3625Q429.8156 37.784374 428.59686 37.784374Q426.58124 37.784374 425.51874 36.940624Q424.45624 36.096874 424.15936 34.45625ZM434.15936 34.45625L435.90936 34.175Q436.05 35.221874 436.72186 35.784374Q437.39374 36.33125 438.59686 36.33125Q439.8 36.33125 440.3781 35.846874Q440.97186 35.346874 440.97186 34.690624Q440.97186 34.096874 440.45624 33.753124Q440.09686 33.51875 438.65936 33.159374Q436.72186 32.659374 435.97186 32.315624Q435.2375 31.95625 434.84686 31.33125Q434.45624 30.690624 434.45624 29.925Q434.45624 29.2375 434.76874 28.64375Q435.09686 28.05 435.64374 27.659374Q436.05 27.3625 436.7531 27.159374Q437.47186 26.940624 438.28436 26.940624Q439.5031 26.940624 440.425 27.3Q441.34686 27.64375 441.78436 28.253124Q442.22186 28.846874 442.39374 29.846874L440.675 30.08125Q440.55 29.284374 439.9875 28.846874Q439.425 28.39375 438.40936 28.39375Q437.1906 28.39375 436.675 28.8Q436.15936 29.190624 436.15936 29.721874Q436.15936 30.065624 436.3781 30.346874Q436.58124 30.628124 437.05 30.815624Q437.3156 30.909374 438.59686 31.253124Q440.47186 31.753124 441.20624 32.08125Q441.9406 32.39375 442.3625 33.003124Q442.78436 33.596874 442.78436 34.503124Q442.78436 35.378124 442.26874 36.159374Q441.7531 36.940624 440.78436 37.3625Q439.8156 37.784374 438.59686 37.784374Q436.58124 37.784374 435.51874 36.940624Q434.45624 36.096874 434.15936 34.45625ZM444.8781 25.253124L444.8781 23.2375L446.64374 23.2375L446.64374 25.253124L444.8781 25.253124ZM444.8781 37.55L444.8781 27.175L446.64374 27.175L446.64374 37.55L444.8781 37.55ZM448.22186 32.3625Q448.22186 29.4875 449.8156 28.096874Q451.15936 26.940624 453.08124 26.940624Q455.22186 26.940624 456.5656 28.346874Q457.925 29.753124 457.925 32.221874Q457.925 34.221874 457.33124 35.378124Q456.7375 36.51875 455.58124 37.159374Q454.4406 37.784374 453.08124 37.784374Q450.89374 37.784374 449.55 36.39375Q448.22186 34.9875 448.22186 32.3625ZM450.01874 32.3625Q450.01874 34.3625 450.8781 35.346874Q451.7531 36.33125 453.08124 36.33125Q454.39374 36.33125 455.2531 35.346874Q456.1281 34.346874 456.1281 32.3Q456.1281 30.378124 455.2531 29.39375Q454.3781 28.39375 453.08124 28.39375Q451.7531 28.39375 450.8781 29.39375Q450.01874 30.378124 450.01874 32.3625ZM459.8625 37.55L459.8625 27.175L461.45624 27.175L461.45624 28.659374Q462.59686 26.940624 464.7531 26.940624Q465.6906 26.940624 466.47186 27.284374Q467.26874 27.6125 467.65936 28.159374Q468.05 28.70625 468.20624 29.45625Q468.3 29.95625 468.3 31.175L468.3 37.55L466.53436 37.55L466.53436 31.2375Q466.53436 30.159374 466.33124 29.628124Q466.1281 29.096874 465.59686 28.784374Q465.08124 28.471874 464.3781 28.471874Q463.2531 28.471874 462.4406 29.190624Q461.6281 29.89375 461.6281 31.878124L461.6281 37.55L459.8625 37.55ZM476.8625 41.51875L476.8625 27.175L478.47186 27.175L478.47186 28.51875Q479.03436 27.7375 479.7375 27.346874Q480.45624 26.940624 481.47186 26.940624Q482.8 26.940624 483.8156 27.628124Q484.83124 28.315624 485.34686 29.565624Q485.8781 30.8 485.8781 32.284374Q485.8781 33.878124 485.3 35.159374Q484.7375 36.425 483.64374 37.1125Q482.55 37.784374 481.34686 37.784374Q480.47186 37.784374 479.76874 37.409374Q479.08124 37.034374 478.6281 36.471874L478.6281 41.51875L476.8625 41.51875ZM478.45624 32.425Q478.45624 34.425 479.26874 35.378124Q480.08124 36.33125 481.2375 36.33125Q482.40936 36.33125 483.2375 35.346874Q484.08124 34.3625 484.08124 32.26875Q484.08124 30.3 483.2531 29.315624Q482.4406 28.315624 481.3156 28.315624Q480.1906 28.315624 479.3156 29.378124Q478.45624 30.425 478.45624 32.425ZM487.84686 37.55L487.84686 27.175L489.425 27.175L489.425 28.753124Q490.03436 27.64375 490.55 27.3Q491.0656 26.940624 491.675 26.940624Q492.5656 26.940624 493.4875 27.503124L492.8781 29.14375Q492.2375 28.753124 491.59686 28.753124Q491.01874 28.753124 490.55 29.1125Q490.09686 29.45625 489.89374 30.065624Q489.6125 31.003124 489.6125 32.1125L489.6125 37.55L487.84686 37.55ZM501.97186 34.20625L503.78436 34.440624Q503.3625 36.01875 502.1906 36.909374Q501.03436 37.784374 499.22186 37.784374Q496.95624 37.784374 495.6125 36.39375Q494.28436 34.9875 494.28436 32.45625Q494.28436 29.83125 495.6281 28.39375Q496.97186 26.940624 499.1281 26.940624Q501.20624 26.940624 502.51874 28.3625Q503.84686 29.76875 503.84686 32.346874Q503.84686 32.503124 503.83124 32.815624L496.09686 32.815624Q496.1906 34.51875 497.0656 35.425Q497.9406 36.33125 499.2375 36.33125Q500.20624 36.33125 500.8781 35.83125Q501.5656 35.315624 501.97186 34.20625ZM496.1906 31.3625L501.9875 31.3625Q501.8781 30.065624 501.33124 29.409374Q500.4875 28.39375 499.14374 28.39375Q497.9406 28.39375 497.1125 29.20625Q496.28436 30.003124 496.1906 31.3625ZM512.59686 37.55L512.59686 36.2375Q511.6125 37.784374 509.6906 37.784374Q508.45624 37.784374 507.40936 37.096874Q506.3781 36.409374 505.8 35.190624Q505.2375 33.971874 505.2375 32.378124Q505.2375 30.815624 505.7531 29.55Q506.26874 28.284374 507.3 27.6125Q508.34686 26.940624 509.6125 26.940624Q510.55 26.940624 511.28436 27.346874Q512.01874 27.7375 512.4875 28.3625L512.4875 23.2375L514.22186 23.2375L514.22186 37.55L512.59686 37.55ZM507.03436 32.378124Q507.03436 34.3625 507.8781 35.346874Q508.72186 36.33125 509.8625 36.33125Q511.01874 36.33125 511.8156 35.39375Q512.6281 34.45625 512.6281 32.51875Q512.6281 30.39375 511.8 29.39375Q510.9875 28.39375 509.78436 28.39375Q508.6125 28.39375 507.8156 29.3625Q507.03436 30.315624 507.03436 32.378124ZM516.8781 25.253124L516.8781 23.2375L518.64374 23.2375L518.64374 25.253124L516.8781 25.253124ZM516.8781 37.55L516.8781 27.175L518.64374 27.175L518.64374 37.55L516.8781 37.55ZM527.64374 33.753124L529.3625 33.971874Q529.08124 35.76875 527.90936 36.784374Q526.7531 37.784374 525.05 37.784374Q522.925 37.784374 521.6281 36.39375Q520.33124 35.003124 520.33124 32.409374Q520.33124 30.721874 520.8781 29.471874Q521.4406 28.20625 522.58124 27.58125Q523.72186 26.940624 525.0656 26.940624Q526.7531 26.940624 527.8156 27.8Q528.89374 28.659374 529.20624 30.221874L527.4875 30.4875Q527.2531 29.440624 526.6281 28.925Q526.0031 28.39375 525.1281 28.39375Q523.8 28.39375 522.97186 29.346874Q522.14374 30.3 522.14374 32.346874Q522.14374 34.440624 522.9406 35.39375Q523.7375 36.33125 525.03436 36.33125Q526.0656 36.33125 526.7531 35.70625Q527.45624 35.065624 527.64374 33.753124ZM534.70624 35.971874L534.95624 37.534374Q534.22186 37.690624 533.6281 37.690624Q532.675 37.690624 532.14374 37.39375Q531.6281 37.08125 531.40936 36.596874Q531.1906 36.096874 531.1906 34.51875L531.1906 28.55L529.90936 28.55L529.90936 27.175L531.1906 27.175L531.1906 24.6125L532.9406 23.55L532.9406 27.175L534.70624 27.175L534.70624 28.55L532.9406 28.55L532.9406 34.6125Q532.9406 35.3625 533.03436 35.58125Q533.1281 35.784374 533.33124 35.925Q533.55 36.05 533.9406 36.05Q534.22186 36.05 534.70624 35.971874ZM536.8781 25.253124L536.8781 23.2375L538.64374 23.2375L538.64374 25.253124L536.8781 25.253124ZM536.8781 37.55L536.8781 27.175L538.64374 27.175L538.64374 37.55L536.8781 37.55ZM540.22186 32.3625Q540.22186 29.4875 541.8156 28.096874Q543.15936 26.940624 545.08124 26.940624Q547.22186 26.940624 548.5656 28.346874Q549.925 29.753124 549.925 32.221874Q549.925 34.221874 549.33124 35.378124Q548.7375 36.51875 547.58124 37.159374Q546.4406 37.784374 545.08124 37.784374Q542.89374 37.784374 541.55 36.39375Q540.22186 34.9875 540.22186 32.3625ZM542.01874 32.3625Q542.01874 34.3625 542.8781 35.346874Q543.7531 36.33125 545.08124 36.33125Q546.39374 36.33125 547.2531 35.346874Q548.1281 34.346874 548.1281 32.3Q548.1281 30.378124 547.2531 29.39375Q546.3781 28.39375 545.08124 28.39375Q543.7531 28.39375 542.8781 29.39375Q542.01874 30.378124 542.01874 32.3625ZM551.8625 37.55L551.8625 27.175L553.45624 27.175L553.45624 28.659374Q554.59686 26.940624 556.7531 26.940624Q557.6906 26.940624 558.47186 27.284374Q559.26874 27.6125 559.65936 28.159374Q560.05 28.70625 560.20624 29.45625Q560.3 29.95625 560.3 31.175L560.3 37.55L558.53436 37.55L558.53436 31.2375Q558.53436 30.159374 558.33124 29.628124Q558.1281 29.096874 557.59686 28.784374Q557.08124 28.471874 556.3781 28.471874Q555.2531 28.471874 554.4406 29.190624Q553.6281 29.89375 553.6281 31.878124L553.6281 37.55L551.8625 37.55Z" fill-rule="nonzero"/></svg>